<svg width="642" height="608" viewBox="0 0 642 608" fill="none" xmlns="http://www.w3.org/2000/svg">
<rect x="98.0205" y="187.868" width="440.906" height="243.485" rx="20" fill="url(#paint0_linear_158_44)"/>
<path fill-rule="evenodd" clip-rule="evenodd" d="M411.378 187.873L262.838 187.873L119.756 431.359L518.924 431.359C529.97 431.359 538.924 422.405 538.924 411.359L538.924 292.581L411.378 187.873Z" fill="white" fill-opacity="0.08"/>
<path fill-rule="evenodd" clip-rule="evenodd" d="M171.212 187.873L118.019 187.873C106.973 187.873 98.0186 196.827 98.0186 207.873L98.0186 411.358C98.0186 422.404 106.973 431.358 118.019 431.358L467.805 431.358L171.212 187.873Z" fill="white" fill-opacity="0.08"/>
<path d="M134.422 386.375C133.836 386.375 133.308 386.279 132.838 386.087C132.369 385.884 131.969 385.601 131.638 385.239C131.318 384.865 131.068 384.412 130.886 383.879C130.716 383.345 130.63 382.748 130.63 382.087C130.63 381.255 130.753 380.476 130.998 379.751C131.254 379.015 131.574 378.348 131.958 377.751C132.353 377.143 132.79 376.609 133.27 376.151C133.75 375.681 134.22 375.303 134.678 375.015L136.406 375.015C135.798 375.452 135.254 375.879 134.774 376.295C134.305 376.711 133.889 377.148 133.526 377.607C133.164 378.055 132.86 378.54 132.614 379.063C132.369 379.575 132.166 380.156 132.006 380.807L132.086 380.839C132.353 380.38 132.705 380.001 133.142 379.703C133.58 379.393 134.145 379.239 134.838 379.239C135.329 379.239 135.777 379.319 136.182 379.479C136.588 379.639 136.94 379.868 137.238 380.167C137.537 380.465 137.766 380.828 137.926 381.255C138.097 381.681 138.182 382.156 138.182 382.679C138.182 383.223 138.092 383.724 137.91 384.183C137.729 384.631 137.473 385.02 137.142 385.351C136.822 385.671 136.428 385.921 135.958 386.103C135.5 386.284 134.988 386.375 134.422 386.375ZM134.406 385.239C135.174 385.239 135.766 385.031 136.182 384.615C136.609 384.199 136.822 383.612 136.822 382.855L136.822 382.727C136.822 381.969 136.609 381.383 136.182 380.967C135.766 380.551 135.174 380.343 134.406 380.343C133.638 380.343 133.041 380.551 132.614 380.967C132.198 381.383 131.99 381.969 131.99 382.727L131.99 382.855C131.99 383.612 132.198 384.199 132.614 384.615C133.041 385.031 133.638 385.239 134.406 385.239ZM144 386.375C143.318 386.375 142.731 386.247 142.24 385.991C141.75 385.724 141.344 385.345 141.024 384.855C140.704 384.364 140.47 383.761 140.32 383.047C140.171 382.332 140.096 381.516 140.096 380.599C140.096 379.692 140.171 378.881 140.32 378.167C140.47 377.441 140.704 376.833 141.024 376.343C141.344 375.852 141.75 375.479 142.24 375.223C142.731 374.956 143.318 374.823 144 374.823C144.683 374.823 145.27 374.956 145.76 375.223C146.251 375.479 146.656 375.852 146.976 376.343C147.296 376.833 147.531 377.441 147.68 378.167C147.83 378.881 147.904 379.692 147.904 380.599C147.904 381.516 147.83 382.332 147.68 383.047C147.531 383.761 147.296 384.364 146.976 384.855C146.656 385.345 146.251 385.724 145.76 385.991C145.27 386.247 144.683 386.375 144 386.375ZM144 385.207C144.448 385.207 144.832 385.121 145.152 384.951C145.472 384.769 145.728 384.519 145.92 384.199C146.123 383.879 146.272 383.495 146.368 383.047C146.464 382.588 146.512 382.076 146.512 381.511L146.512 379.687C146.512 379.132 146.464 378.625 146.368 378.167C146.272 377.708 146.123 377.319 145.92 376.999C145.728 376.679 145.472 376.433 145.152 376.263C144.832 376.081 144.448 375.991 144 375.991C143.552 375.991 143.168 376.081 142.848 376.263C142.528 376.433 142.267 376.679 142.064 376.999C141.872 377.319 141.728 377.708 141.632 378.167C141.536 378.625 141.488 379.132 141.488 379.687L141.488 381.511C141.488 382.076 141.536 382.588 141.632 383.047C141.728 383.495 141.872 383.879 142.064 384.199C142.267 384.519 142.528 384.769 142.848 384.951C143.168 385.121 143.552 385.207 144 385.207ZM144 381.543C143.627 381.543 143.366 381.468 143.216 381.319C143.078 381.169 143.008 380.988 143.008 380.775L143.008 380.423C143.008 380.209 143.078 380.028 143.216 379.879C143.366 379.729 143.627 379.655 144 379.655C144.374 379.655 144.63 379.729 144.768 379.879C144.918 380.028 144.992 380.209 144.992 380.423L144.992 380.775C144.992 380.988 144.918 381.169 144.768 381.319C144.63 381.468 144.374 381.543 144 381.543ZM150.154 386.183L150.154 385.015L153.354 385.015L153.354 376.007L153.242 376.007L150.426 378.631L149.642 377.783L152.602 375.015L154.698 375.015L154.698 385.015L157.642 385.015L157.642 386.183L150.154 386.183ZM159.748 386.183L159.748 385.015L162.948 385.015L162.948 376.007L162.836 376.007L160.02 378.631L159.236 377.783L162.196 375.015L164.292 375.015L164.292 385.015L167.236 385.015L167.236 386.183L159.748 386.183ZM180.055 381.991L180.055 380.647L184.695 380.647L184.695 381.991L180.055 381.991ZM199.531 386.183L203.899 376.167L199.003 376.167L199.003 378.247L197.803 378.247L197.803 375.015L205.259 375.015L205.259 376.199L200.971 386.183L199.531 386.183ZM212.404 386.183L212.404 383.991L206.9 383.991L206.9 382.807L211.732 375.015L213.684 375.015L213.684 382.887L215.348 382.887L215.348 383.991L213.684 383.991L213.684 386.183L212.404 386.183ZM208.1 382.887L212.404 382.887L212.404 376.055L212.34 376.055L208.1 382.887ZM220.75 386.375C220.068 386.375 219.481 386.247 218.99 385.991C218.5 385.724 218.094 385.345 217.774 384.855C217.454 384.364 217.22 383.761 217.07 383.047C216.921 382.332 216.846 381.516 216.846 380.599C216.846 379.692 216.921 378.881 217.07 378.167C217.22 377.441 217.454 376.833 217.774 376.343C218.094 375.852 218.5 375.479 218.99 375.223C219.481 374.956 220.068 374.823 220.75 374.823C221.433 374.823 222.02 374.956 222.51 375.223C223.001 375.479 223.406 375.852 223.726 376.343C224.046 376.833 224.281 377.441 224.43 378.167C224.58 378.881 224.654 379.692 224.654 380.599C224.654 381.516 224.58 382.332 224.43 383.047C224.281 383.761 224.046 384.364 223.726 384.855C223.406 385.345 223.001 385.724 222.51 385.991C222.02 386.247 221.433 386.375 220.75 386.375ZM220.75 385.207C221.198 385.207 221.582 385.121 221.902 384.951C222.222 384.769 222.478 384.519 222.67 384.199C222.873 383.879 223.022 383.495 223.118 383.047C223.214 382.588 223.262 382.076 223.262 381.511L223.262 379.687C223.262 379.132 223.214 378.625 223.118 378.167C223.022 377.708 222.873 377.319 222.67 376.999C222.478 376.679 222.222 376.433 221.902 376.263C221.582 376.081 221.198 375.991 220.75 375.991C220.302 375.991 219.918 376.081 219.598 376.263C219.278 376.433 219.017 376.679 218.814 376.999C218.622 377.319 218.478 377.708 218.382 378.167C218.286 378.625 218.238 379.132 218.238 379.687L218.238 381.511C218.238 382.076 218.286 382.588 218.382 383.047C218.478 383.495 218.622 383.879 218.814 384.199C219.017 384.519 219.278 384.769 219.598 384.951C219.918 385.121 220.302 385.207 220.75 385.207ZM220.75 381.543C220.377 381.543 220.116 381.468 219.966 381.319C219.828 381.169 219.758 380.988 219.758 380.775L219.758 380.423C219.758 380.209 219.828 380.028 219.966 379.879C220.116 379.729 220.377 379.655 220.75 379.655C221.124 379.655 221.38 379.729 221.518 379.879C221.668 380.028 221.742 380.209 221.742 380.423L221.742 380.775C221.742 380.988 221.668 381.169 221.518 381.319C221.38 381.468 221.124 381.543 220.75 381.543ZM230.36 386.375C229.773 386.375 229.245 386.279 228.776 386.087C228.307 385.884 227.907 385.601 227.576 385.239C227.256 384.865 227.005 384.412 226.824 383.879C226.653 383.345 226.568 382.748 226.568 382.087C226.568 381.255 226.691 380.476 226.936 379.751C227.192 379.015 227.512 378.348 227.896 377.751C228.291 377.143 228.728 376.609 229.208 376.151C229.688 375.681 230.157 375.303 230.616 375.015L232.344 375.015C231.736 375.452 231.192 375.879 230.712 376.295C230.243 376.711 229.827 377.148 229.464 377.607C229.101 378.055 228.797 378.54 228.552 379.063C228.307 379.575 228.104 380.156 227.944 380.807L228.024 380.839C228.291 380.38 228.643 380.001 229.08 379.703C229.517 379.393 230.083 379.239 230.776 379.239C231.267 379.239 231.715 379.319 232.12 379.479C232.525 379.639 232.877 379.868 233.176 380.167C233.475 380.465 233.704 380.828 233.864 381.255C234.035 381.681 234.12 382.156 234.12 382.679C234.12 383.223 234.029 383.724 233.848 384.183C233.667 384.631 233.411 385.02 233.08 385.351C232.76 385.671 232.365 385.921 231.896 386.103C231.437 386.284 230.925 386.375 230.36 386.375ZM230.344 385.239C231.112 385.239 231.704 385.031 232.12 384.615C232.547 384.199 232.76 383.612 232.76 382.855L232.76 382.727C232.76 381.969 232.547 381.383 232.12 380.967C231.704 380.551 231.112 380.343 230.344 380.343C229.576 380.343 228.979 380.551 228.552 380.967C228.136 381.383 227.928 381.969 227.928 382.727L227.928 382.855C227.928 383.612 228.136 384.199 228.552 384.615C228.979 385.031 229.576 385.239 230.344 385.239ZM247.211 381.991L247.211 380.647L251.851 380.647L251.851 381.991L247.211 381.991ZM269.967 386.183L269.967 383.991L264.463 383.991L264.463 382.807L269.295 375.015L271.247 375.015L271.247 382.887L272.911 382.887L272.911 383.991L271.247 383.991L271.247 386.183L269.967 386.183ZM265.663 382.887L269.967 382.887L269.967 376.055L269.903 376.055L265.663 382.887ZM276.281 386.183L280.649 376.167L275.753 376.167L275.753 378.247L274.553 378.247L274.553 375.015L282.009 375.015L282.009 376.199L277.721 386.183L276.281 386.183ZM287.922 386.375C287.336 386.375 286.808 386.279 286.338 386.087C285.869 385.884 285.469 385.601 285.138 385.239C284.818 384.865 284.568 384.412 284.386 383.879C284.216 383.345 284.13 382.748 284.13 382.087C284.13 381.255 284.253 380.476 284.498 379.751C284.754 379.015 285.074 378.348 285.458 377.751C285.853 377.143 286.29 376.609 286.77 376.151C287.25 375.681 287.72 375.303 288.178 375.015L289.906 375.015C289.298 375.452 288.754 375.879 288.274 376.295C287.805 376.711 287.389 377.148 287.026 377.607C286.664 378.055 286.36 378.54 286.114 379.063C285.869 379.575 285.666 380.156 285.506 380.807L285.586 380.839C285.853 380.38 286.205 380.001 286.642 379.703C287.08 379.393 287.645 379.239 288.338 379.239C288.829 379.239 289.277 379.319 289.682 379.479C290.088 379.639 290.44 379.868 290.738 380.167C291.037 380.465 291.266 380.828 291.426 381.255C291.597 381.681 291.682 382.156 291.682 382.679C291.682 383.223 291.592 383.724 291.41 384.183C291.229 384.631 290.973 385.02 290.642 385.351C290.322 385.671 289.928 385.921 289.458 386.103C289 386.284 288.488 386.375 287.922 386.375ZM287.906 385.239C288.674 385.239 289.266 385.031 289.682 384.615C290.109 384.199 290.322 383.612 290.322 382.855L290.322 382.727C290.322 381.969 290.109 381.383 289.682 380.967C289.266 380.551 288.674 380.343 287.906 380.343C287.138 380.343 286.541 380.551 286.114 380.967C285.698 381.383 285.49 381.969 285.49 382.727L285.49 382.855C285.49 383.612 285.698 384.199 286.114 384.615C286.541 385.031 287.138 385.239 287.906 385.239ZM297.02 379.751C297.799 379.751 298.38 379.58 298.764 379.239C299.159 378.887 299.356 378.439 299.356 377.895L299.356 377.783C299.356 377.185 299.164 376.737 298.78 376.439C298.407 376.14 297.916 375.991 297.308 375.991C296.711 375.991 296.226 376.124 295.852 376.391C295.49 376.647 295.191 376.988 294.956 377.415L293.948 376.647C294.087 376.423 294.258 376.204 294.46 375.991C294.663 375.767 294.898 375.569 295.164 375.399C295.442 375.228 295.756 375.089 296.108 374.983C296.471 374.876 296.882 374.823 297.34 374.823C297.82 374.823 298.268 374.887 298.684 375.015C299.1 375.132 299.463 375.313 299.772 375.559C300.082 375.793 300.322 376.087 300.492 376.439C300.674 376.791 300.764 377.191 300.764 377.639C300.764 378.001 300.706 378.327 300.588 378.615C300.482 378.903 300.327 379.153 300.124 379.367C299.932 379.58 299.703 379.761 299.436 379.911C299.17 380.06 298.887 380.172 298.588 380.247L298.588 380.311C298.898 380.375 299.196 380.481 299.484 380.631C299.772 380.769 300.028 380.956 300.252 381.191C300.476 381.415 300.652 381.692 300.78 382.023C300.919 382.343 300.988 382.711 300.988 383.127C300.988 383.607 300.892 384.049 300.7 384.455C300.519 384.849 300.258 385.191 299.916 385.479C299.586 385.756 299.18 385.975 298.7 386.135C298.231 386.295 297.708 386.375 297.132 386.375C296.642 386.375 296.204 386.321 295.82 386.215C295.447 386.108 295.111 385.964 294.812 385.783C294.524 385.601 294.268 385.399 294.044 385.175C293.831 384.951 293.639 384.716 293.468 384.471L294.476 383.703C294.626 383.927 294.78 384.129 294.94 384.311C295.1 384.492 295.282 384.652 295.484 384.791C295.698 384.919 295.938 385.02 296.204 385.095C296.471 385.169 296.78 385.207 297.132 385.207C297.922 385.207 298.524 385.025 298.94 384.663C299.367 384.3 299.58 383.783 299.58 383.111L299.58 382.983C299.58 382.321 299.372 381.809 298.956 381.447C298.551 381.084 297.938 380.903 297.116 380.903L295.788 380.903L295.788 379.751L297.02 379.751ZM314.368 381.991L314.368 380.647L319.008 380.647L319.008 381.991L314.368 381.991ZM335.875 386.375C335.225 386.375 334.654 386.295 334.163 386.135C333.673 385.964 333.262 385.735 332.931 385.447C332.611 385.159 332.366 384.817 332.195 384.423C332.035 384.028 331.955 383.601 331.955 383.143C331.955 382.375 332.163 381.767 332.579 381.319C332.995 380.871 333.545 380.556 334.227 380.375L334.227 380.247C333.63 380.044 333.155 379.719 332.803 379.271C332.462 378.812 332.291 378.263 332.291 377.623C332.291 376.769 332.606 376.092 333.235 375.591C333.865 375.079 334.745 374.823 335.875 374.823C337.006 374.823 337.886 375.079 338.515 375.591C339.145 376.092 339.459 376.769 339.459 377.623C339.459 378.263 339.283 378.812 338.931 379.271C338.59 379.719 338.121 380.044 337.523 380.247L337.523 380.375C338.206 380.556 338.755 380.871 339.171 381.319C339.587 381.767 339.795 382.375 339.795 383.143C339.795 383.601 339.71 384.028 339.539 384.423C339.379 384.817 339.134 385.159 338.803 385.447C338.473 385.735 338.062 385.964 337.571 386.135C337.091 386.295 336.526 386.375 335.875 386.375ZM335.875 385.239C336.665 385.239 337.283 385.063 337.731 384.711C338.179 384.359 338.403 383.863 338.403 383.223L338.403 382.871C338.403 382.231 338.179 381.735 337.731 381.383C337.294 381.031 336.675 380.855 335.875 380.855C335.075 380.855 334.451 381.031 334.003 381.383C333.566 381.735 333.347 382.231 333.347 382.871L333.347 383.223C333.347 383.863 333.571 384.359 334.019 384.711C334.467 385.063 335.086 385.239 335.875 385.239ZM335.875 379.767C336.601 379.767 337.15 379.612 337.523 379.303C337.907 378.993 338.099 378.551 338.099 377.975L338.099 377.751C338.099 377.175 337.902 376.732 337.507 376.423C337.123 376.113 336.579 375.959 335.875 375.959C335.171 375.959 334.622 376.113 334.227 376.423C333.843 376.732 333.651 377.175 333.651 377.751L333.651 377.975C333.651 378.551 333.838 378.993 334.211 379.303C334.595 379.612 335.15 379.767 335.875 379.767ZM345.469 386.375C344.818 386.375 344.248 386.295 343.757 386.135C343.266 385.964 342.856 385.735 342.525 385.447C342.205 385.159 341.96 384.817 341.789 384.423C341.629 384.028 341.549 383.601 341.549 383.143C341.549 382.375 341.757 381.767 342.173 381.319C342.589 380.871 343.138 380.556 343.821 380.375L343.821 380.247C343.224 380.044 342.749 379.719 342.397 379.271C342.056 378.812 341.885 378.263 341.885 377.623C341.885 376.769 342.2 376.092 342.829 375.591C343.458 375.079 344.338 374.823 345.469 374.823C346.6 374.823 347.48 375.079 348.109 375.591C348.738 376.092 349.053 376.769 349.053 377.623C349.053 378.263 348.877 378.812 348.525 379.271C348.184 379.719 347.714 380.044 347.117 380.247L347.117 380.375C347.8 380.556 348.349 380.871 348.765 381.319C349.181 381.767 349.389 382.375 349.389 383.143C349.389 383.601 349.304 384.028 349.133 384.423C348.973 384.817 348.728 385.159 348.397 385.447C348.066 385.735 347.656 385.964 347.165 386.135C346.685 386.295 346.12 386.375 345.469 386.375ZM345.469 385.239C346.258 385.239 346.877 385.063 347.325 384.711C347.773 384.359 347.997 383.863 347.997 383.223L347.997 382.871C347.997 382.231 347.773 381.735 347.325 381.383C346.888 381.031 346.269 380.855 345.469 380.855C344.669 380.855 344.045 381.031 343.597 381.383C343.16 381.735 342.941 382.231 342.941 382.871L342.941 383.223C342.941 383.863 343.165 384.359 343.613 384.711C344.061 385.063 344.68 385.239 345.469 385.239ZM345.469 379.767C346.194 379.767 346.744 379.612 347.117 379.303C347.501 378.993 347.693 378.551 347.693 377.975L347.693 377.751C347.693 377.175 347.496 376.732 347.101 376.423C346.717 376.113 346.173 375.959 345.469 375.959C344.765 375.959 344.216 376.113 343.821 376.423C343.437 376.732 343.245 377.175 343.245 377.751L343.245 377.975C343.245 378.551 343.432 378.993 343.805 379.303C344.189 379.612 344.744 379.767 345.469 379.767ZM354.583 379.751C355.361 379.751 355.943 379.58 356.327 379.239C356.721 378.887 356.919 378.439 356.919 377.895L356.919 377.783C356.919 377.185 356.727 376.737 356.343 376.439C355.969 376.14 355.479 375.991 354.871 375.991C354.273 375.991 353.788 376.124 353.415 376.391C353.052 376.647 352.753 376.988 352.519 377.415L351.511 376.647C351.649 376.423 351.82 376.204 352.023 375.991C352.225 375.767 352.46 375.569 352.727 375.399C353.004 375.228 353.319 375.089 353.671 374.983C354.033 374.876 354.444 374.823 354.903 374.823C355.383 374.823 355.831 374.887 356.247 375.015C356.663 375.132 357.025 375.313 357.335 375.559C357.644 375.793 357.884 376.087 358.055 376.439C358.236 376.791 358.327 377.191 358.327 377.639C358.327 378.001 358.268 378.327 358.151 378.615C358.044 378.903 357.889 379.153 357.687 379.367C357.495 379.58 357.265 379.761 356.999 379.911C356.732 380.06 356.449 380.172 356.151 380.247L356.151 380.311C356.46 380.375 356.759 380.481 357.047 380.631C357.335 380.769 357.591 380.956 357.815 381.191C358.039 381.415 358.215 381.692 358.343 382.023C358.481 382.343 358.551 382.711 358.551 383.127C358.551 383.607 358.455 384.049 358.263 384.455C358.081 384.849 357.82 385.191 357.479 385.479C357.148 385.756 356.743 385.975 356.263 386.135C355.793 386.295 355.271 386.375 354.695 386.375C354.204 386.375 353.767 386.321 353.383 386.215C353.009 386.108 352.673 385.964 352.375 385.783C352.087 385.601 351.831 385.399 351.607 385.175C351.393 384.951 351.201 384.716 351.031 384.471L352.039 383.703C352.188 383.927 352.343 384.129 352.503 384.311C352.663 384.492 352.844 384.652 353.047 384.791C353.26 384.919 353.5 385.02 353.767 385.095C354.033 385.169 354.343 385.207 354.695 385.207C355.484 385.207 356.087 385.025 356.503 384.663C356.929 384.3 357.143 383.783 357.143 383.111L357.143 382.983C357.143 382.321 356.935 381.809 356.519 381.447C356.113 381.084 355.5 380.903 354.679 380.903L353.351 380.903L353.351 379.751L354.583 379.751ZM362.624 386.183L366.992 376.167L362.096 376.167L362.096 378.247L360.896 378.247L360.896 375.015L368.352 375.015L368.352 376.199L364.064 386.183L362.624 386.183Z" fill="white"/>
<path d="M131.124 343.432L134.244 343.432C135.61 343.432 136.628 343.901 137.3 344.84C137.972 345.779 138.308 347.171 138.308 349.016C138.308 350.861 137.972 352.253 137.3 353.192C136.628 354.131 135.61 354.6 134.244 354.6L131.124 354.6L131.124 343.432ZM134.18 353.432C135.076 353.432 135.748 353.123 136.196 352.504C136.655 351.885 136.884 351.011 136.884 349.88L136.884 348.152C136.884 347.021 136.655 346.147 136.196 345.528C135.748 344.909 135.076 344.6 134.18 344.6L132.468 344.6L132.468 353.432L134.18 353.432ZM140.766 342.76L142.046 342.76L142.046 347.688L142.11 347.688C142.196 347.485 142.302 347.293 142.43 347.112C142.558 346.92 142.713 346.755 142.894 346.616C143.086 346.477 143.31 346.365 143.566 346.28C143.822 346.195 144.121 346.152 144.462 346.152C145.326 346.152 146.02 346.429 146.542 346.984C147.065 347.528 147.326 348.301 147.326 349.304L147.326 354.6L146.046 354.6L146.046 349.528C146.046 348.771 145.881 348.211 145.55 347.848C145.22 347.475 144.734 347.288 144.094 347.288C143.838 347.288 143.588 347.32 143.342 347.384C143.097 347.448 142.878 347.544 142.686 347.672C142.494 347.8 142.34 347.965 142.222 348.168C142.105 348.371 142.046 348.605 142.046 348.872L142.046 354.6L140.766 354.6L140.766 342.76ZM150.024 353.512L152.44 353.512L152.44 347.432L150.024 347.432L150.024 346.344L153.72 346.344L153.72 348.424L153.8 348.424C153.971 347.773 154.291 347.267 154.76 346.904C155.24 346.531 155.848 346.344 156.584 346.344L157.736 346.344L157.736 347.624L156.184 347.624C155.448 347.624 154.851 347.837 154.392 348.264C153.944 348.691 153.72 349.251 153.72 349.944L153.72 353.512L156.92 353.512L156.92 354.6L150.024 354.6L150.024 353.512ZM165.138 353.256L165.074 353.256C164.988 353.459 164.882 353.656 164.754 353.848C164.626 354.029 164.466 354.189 164.274 354.328C164.092 354.467 163.874 354.579 163.618 354.664C163.362 354.749 163.063 354.792 162.722 354.792C161.858 354.792 161.164 354.52 160.642 353.976C160.119 353.421 159.858 352.643 159.858 351.64L159.858 346.344L161.138 346.344L161.138 351.416C161.138 352.173 161.303 352.739 161.634 353.112C161.964 353.475 162.45 353.656 163.09 353.656C163.346 353.656 163.596 353.624 163.842 353.56C164.087 353.496 164.306 353.4 164.498 353.272C164.69 353.144 164.844 352.984 164.962 352.792C165.079 352.589 165.138 352.349 165.138 352.072L165.138 346.344L166.418 346.344L166.418 354.6L165.138 354.6L165.138 353.256ZM171.963 354.6L169.003 346.344L170.299 346.344L171.483 349.8L172.763 353.528L172.827 353.528L174.107 349.8L175.291 346.344L176.555 346.344L173.595 354.6L171.963 354.6ZM192.335 354.792C190.97 354.792 189.951 354.296 189.279 353.304C188.618 352.312 188.287 350.883 188.287 349.016C188.287 347.149 188.618 345.72 189.279 344.728C189.951 343.736 190.97 343.24 192.335 343.24C192.847 343.24 193.29 343.309 193.663 343.448C194.036 343.587 194.356 343.773 194.623 344.008C194.89 344.243 195.114 344.509 195.295 344.808C195.476 345.096 195.636 345.389 195.775 345.688L194.623 346.216C194.527 345.971 194.415 345.741 194.287 345.528C194.159 345.304 194.004 345.112 193.823 344.952C193.652 344.781 193.444 344.648 193.199 344.552C192.964 344.456 192.676 344.408 192.335 344.408C191.45 344.408 190.788 344.744 190.351 345.416C189.924 346.088 189.711 346.984 189.711 348.104L189.711 349.928C189.711 351.048 189.924 351.944 190.351 352.616C190.788 353.288 191.45 353.624 192.335 353.624C192.676 353.624 192.964 353.576 193.199 353.48C193.444 353.384 193.652 353.256 193.823 353.096C194.004 352.925 194.159 352.733 194.287 352.52C194.415 352.296 194.527 352.061 194.623 351.816L195.775 352.344C195.636 352.653 195.476 352.952 195.295 353.24C195.114 353.528 194.89 353.789 194.623 354.024C194.356 354.259 194.036 354.445 193.663 354.584C193.29 354.723 192.847 354.792 192.335 354.792ZM198.329 342.76L199.609 342.76L199.609 347.688L199.673 347.688C199.758 347.485 199.865 347.293 199.993 347.112C200.121 346.92 200.275 346.755 200.457 346.616C200.649 346.477 200.873 346.365 201.129 346.28C201.385 346.195 201.683 346.152 202.025 346.152C202.889 346.152 203.582 346.429 204.105 346.984C204.627 347.528 204.889 348.301 204.889 349.304L204.889 354.6L203.609 354.6L203.609 349.528C203.609 348.771 203.443 348.211 203.113 347.848C202.782 347.475 202.297 347.288 201.657 347.288C201.401 347.288 201.15 347.32 200.905 347.384C200.659 347.448 200.441 347.544 200.249 347.672C200.057 347.8 199.902 347.965 199.785 348.168C199.667 348.371 199.609 348.605 199.609 348.872L199.609 354.6L198.329 354.6L198.329 342.76ZM214.274 354.6C213.773 354.6 213.416 354.472 213.202 354.216C212.989 353.96 212.856 353.64 212.802 353.256L212.722 353.256C212.541 353.736 212.248 354.115 211.842 354.392C211.448 354.659 210.914 354.792 210.242 354.792C209.378 354.792 208.69 354.568 208.178 354.12C207.666 353.672 207.41 353.059 207.41 352.28C207.41 351.512 207.688 350.92 208.242 350.504C208.808 350.088 209.714 349.88 210.962 349.88L212.722 349.88L212.722 349.064C212.722 348.456 212.552 348.003 212.21 347.704C211.869 347.395 211.384 347.24 210.754 347.24C210.2 347.24 209.746 347.352 209.394 347.576C209.042 347.789 208.76 348.083 208.546 348.456L207.682 347.816C207.789 347.603 207.933 347.395 208.114 347.192C208.296 346.989 208.52 346.813 208.786 346.664C209.053 346.504 209.357 346.381 209.698 346.296C210.04 346.2 210.418 346.152 210.834 346.152C211.805 346.152 212.573 346.397 213.138 346.888C213.714 347.379 214.002 348.061 214.002 348.936L214.002 353.48L215.154 353.48L215.154 354.6L214.274 354.6ZM210.466 353.72C210.797 353.72 211.096 353.683 211.362 353.608C211.64 353.523 211.88 353.416 212.082 353.288C212.285 353.149 212.44 352.989 212.546 352.808C212.664 352.616 212.722 352.413 212.722 352.2L212.722 350.84L210.962 350.84C210.194 350.84 209.634 350.947 209.282 351.16C208.93 351.373 208.754 351.683 208.754 352.088L208.754 352.424C208.754 352.851 208.904 353.176 209.202 353.4C209.512 353.613 209.933 353.72 210.466 353.72ZM222.748 353.256L222.684 353.256C222.151 354.28 221.303 354.792 220.14 354.792C219.127 354.792 218.332 354.413 217.756 353.656C217.191 352.899 216.908 351.837 216.908 350.472C216.908 349.107 217.191 348.045 217.756 347.288C218.332 346.531 219.127 346.152 220.14 346.152C221.303 346.152 222.151 346.664 222.684 347.688L222.748 347.688L222.748 342.76L224.028 342.76L224.028 354.6L222.748 354.6L222.748 353.256ZM220.636 353.656C220.924 353.656 221.196 353.619 221.452 353.544C221.708 353.469 221.932 353.363 222.124 353.224C222.316 353.075 222.466 352.899 222.572 352.696C222.69 352.483 222.748 352.237 222.748 351.96L222.748 348.984C222.748 348.707 222.69 348.467 222.572 348.264C222.466 348.051 222.316 347.875 222.124 347.736C221.932 347.587 221.708 347.475 221.452 347.4C221.196 347.325 220.924 347.288 220.636 347.288C219.89 347.288 219.308 347.517 218.892 347.976C218.487 348.424 218.284 349.021 218.284 349.768L218.284 351.176C218.284 351.923 218.487 352.525 218.892 352.984C219.308 353.432 219.89 353.656 220.636 353.656ZM232.342 353.256L232.278 353.256C231.745 354.28 230.897 354.792 229.734 354.792C228.721 354.792 227.926 354.413 227.35 353.656C226.785 352.899 226.502 351.837 226.502 350.472C226.502 349.107 226.785 348.045 227.35 347.288C227.926 346.531 228.721 346.152 229.734 346.152C230.897 346.152 231.745 346.664 232.278 347.688L232.342 347.688L232.342 342.76L233.622 342.76L233.622 354.6L232.342 354.6L232.342 353.256ZM230.23 353.656C230.518 353.656 230.79 353.619 231.046 353.544C231.302 353.469 231.526 353.363 231.718 353.224C231.91 353.075 232.059 352.899 232.166 352.696C232.283 352.483 232.342 352.237 232.342 351.96L232.342 348.984C232.342 348.707 232.283 348.467 232.166 348.264C232.059 348.051 231.91 347.875 231.718 347.736C231.526 347.587 231.302 347.475 231.046 347.4C230.79 347.325 230.518 347.288 230.23 347.288C229.483 347.288 228.902 347.517 228.486 347.976C228.081 348.424 227.878 349.021 227.878 349.768L227.878 351.176C227.878 351.923 228.081 352.525 228.486 352.984C228.902 353.432 229.483 353.656 230.23 353.656ZM243.056 354.6C242.554 354.6 242.197 354.472 241.984 354.216C241.77 353.96 241.637 353.64 241.584 353.256L241.504 353.256C241.322 353.736 241.029 354.115 240.624 354.392C240.229 354.659 239.696 354.792 239.024 354.792C238.16 354.792 237.472 354.568 236.96 354.12C236.448 353.672 236.192 353.059 236.192 352.28C236.192 351.512 236.469 350.92 237.024 350.504C237.589 350.088 238.496 349.88 239.744 349.88L241.504 349.88L241.504 349.064C241.504 348.456 241.333 348.003 240.992 347.704C240.65 347.395 240.165 347.24 239.536 347.24C238.981 347.24 238.528 347.352 238.176 347.576C237.824 347.789 237.541 348.083 237.328 348.456L236.464 347.816C236.57 347.603 236.714 347.395 236.896 347.192C237.077 346.989 237.301 346.813 237.568 346.664C237.834 346.504 238.138 346.381 238.48 346.296C238.821 346.2 239.2 346.152 239.616 346.152C240.586 346.152 241.354 346.397 241.92 346.888C242.496 347.379 242.784 348.061 242.784 348.936L242.784 353.48L243.936 353.48L243.936 354.6L243.056 354.6ZM239.248 353.72C239.578 353.72 239.877 353.683 240.144 353.608C240.421 353.523 240.661 353.416 240.864 353.288C241.066 353.149 241.221 352.989 241.328 352.808C241.445 352.616 241.504 352.413 241.504 352.2L241.504 350.84L239.744 350.84C238.976 350.84 238.416 350.947 238.064 351.16C237.712 351.373 237.536 351.683 237.536 352.088L237.536 352.424C237.536 352.851 237.685 353.176 237.984 353.4C238.293 353.613 238.714 353.72 239.248 353.72Z" fill="white"/>
<path opacity="0.9" d="M135.752 242.958C134.974 242.958 134.264 242.83 133.624 242.574C132.984 242.318 132.435 241.945 131.976 241.454C131.518 240.964 131.16 240.361 130.904 239.646C130.659 238.921 130.536 238.094 130.536 237.166C130.536 236.238 130.675 235.417 130.952 234.702C131.24 233.977 131.624 233.369 132.104 232.878C132.584 232.388 133.144 232.014 133.784 231.758C134.424 231.502 135.107 231.374 135.832 231.374C136.291 231.374 136.702 231.406 137.064 231.47C137.438 231.534 137.758 231.609 138.024 231.694C138.302 231.78 138.526 231.865 138.696 231.95C138.867 232.036 138.984 232.1 139.048 232.142L138.6 233.422C138.504 233.358 138.366 233.289 138.184 233.214C138.003 233.14 137.795 233.065 137.56 232.99C137.336 232.916 137.086 232.857 136.808 232.814C136.542 232.761 136.27 232.734 135.992 232.734C135.406 232.734 134.878 232.836 134.408 233.038C133.939 233.241 133.539 233.534 133.208 233.918C132.878 234.302 132.622 234.772 132.44 235.326C132.27 235.87 132.184 236.484 132.184 237.166C132.184 237.828 132.259 238.43 132.408 238.974C132.568 239.518 132.803 239.988 133.112 240.382C133.422 240.766 133.806 241.065 134.264 241.278C134.734 241.492 135.278 241.598 135.896 241.598C136.611 241.598 137.203 241.524 137.672 241.374C138.142 241.225 138.494 241.092 138.728 240.974L139.128 242.254C139.054 242.308 138.92 242.377 138.728 242.462C138.536 242.537 138.296 242.612 138.008 242.686C137.72 242.761 137.384 242.825 137 242.878C136.616 242.932 136.2 242.958 135.752 242.958ZM143.882 234.222C144.01 234.222 144.154 234.233 144.314 234.254C144.485 234.265 144.65 234.286 144.81 234.318C144.97 234.34 145.114 234.366 145.242 234.398C145.381 234.42 145.482 234.441 145.546 234.462L145.29 235.758C145.173 235.716 144.976 235.668 144.698 235.614C144.432 235.55 144.085 235.518 143.658 235.518C143.381 235.518 143.104 235.55 142.826 235.614C142.56 235.668 142.384 235.705 142.298 235.726L142.298 242.718L140.81 242.718L140.81 234.75C141.162 234.622 141.6 234.505 142.122 234.398C142.645 234.281 143.232 234.222 143.882 234.222ZM146.518 238.574C146.518 237.838 146.625 237.198 146.838 236.654C147.051 236.1 147.334 235.641 147.686 235.278C148.038 234.916 148.443 234.644 148.902 234.462C149.361 234.281 149.83 234.19 150.31 234.19C151.43 234.19 152.289 234.542 152.886 235.246C153.483 235.94 153.782 237.001 153.782 238.43C153.782 238.494 153.782 238.58 153.782 238.686C153.782 238.782 153.777 238.873 153.766 238.958L148.07 238.958C148.134 239.822 148.385 240.478 148.822 240.926C149.259 241.374 149.942 241.598 150.87 241.598C151.393 241.598 151.83 241.556 152.182 241.47C152.545 241.374 152.817 241.284 152.998 241.198L153.206 242.446C153.025 242.542 152.705 242.644 152.246 242.75C151.798 242.857 151.286 242.91 150.71 242.91C149.985 242.91 149.355 242.804 148.822 242.59C148.299 242.366 147.867 242.062 147.526 241.678C147.185 241.294 146.929 240.841 146.758 240.318C146.598 239.785 146.518 239.204 146.518 238.574ZM152.23 237.758C152.241 237.086 152.07 236.537 151.718 236.11C151.377 235.673 150.902 235.454 150.294 235.454C149.953 235.454 149.649 235.524 149.382 235.662C149.126 235.79 148.907 235.961 148.726 236.174C148.545 236.388 148.401 236.633 148.294 236.91C148.198 237.188 148.134 237.47 148.102 237.758L152.23 237.758ZM161.296 236.158C161.114 236.009 160.853 235.865 160.512 235.726C160.17 235.588 159.797 235.518 159.392 235.518C158.965 235.518 158.597 235.598 158.288 235.758C157.989 235.908 157.744 236.121 157.552 236.398C157.36 236.665 157.221 236.985 157.136 237.358C157.05 237.732 157.008 238.132 157.008 238.558C157.008 239.529 157.248 240.281 157.728 240.814C158.208 241.337 158.848 241.598 159.648 241.598C160.053 241.598 160.389 241.582 160.656 241.55C160.933 241.508 161.146 241.465 161.296 241.422L161.296 236.158ZM161.296 230.558L162.784 230.302L162.784 242.478C162.442 242.574 162.005 242.67 161.472 242.766C160.938 242.862 160.325 242.91 159.632 242.91C158.992 242.91 158.416 242.809 157.904 242.606C157.392 242.404 156.954 242.116 156.592 241.742C156.229 241.369 155.946 240.916 155.744 240.382C155.552 239.838 155.456 239.23 155.456 238.558C155.456 237.918 155.536 237.332 155.696 236.798C155.866 236.265 156.112 235.806 156.432 235.422C156.752 235.038 157.141 234.74 157.6 234.526C158.069 234.313 158.602 234.206 159.2 234.206C159.68 234.206 160.101 234.27 160.464 234.398C160.837 234.526 161.114 234.649 161.296 234.766L161.296 230.558ZM166.83 242.718L165.342 242.718L165.342 234.398L166.83 234.398L166.83 242.718ZM166.078 232.894C165.811 232.894 165.582 232.809 165.39 232.638C165.208 232.457 165.118 232.217 165.118 231.918C165.118 231.62 165.208 231.385 165.39 231.214C165.582 231.033 165.811 230.942 166.078 230.942C166.344 230.942 166.568 231.033 166.75 231.214C166.942 231.385 167.038 231.62 167.038 231.918C167.038 232.217 166.942 232.457 166.75 232.638C166.568 232.809 166.344 232.894 166.078 232.894ZM170.78 234.398L173.932 234.398L173.932 235.646L170.78 235.646L170.78 239.486C170.78 239.902 170.812 240.249 170.876 240.526C170.94 240.793 171.036 241.006 171.164 241.166C171.292 241.316 171.452 241.422 171.644 241.486C171.836 241.55 172.06 241.582 172.316 241.582C172.764 241.582 173.122 241.534 173.388 241.438C173.666 241.332 173.858 241.257 173.964 241.214L174.252 242.446C174.103 242.521 173.842 242.612 173.468 242.718C173.095 242.836 172.668 242.894 172.188 242.894C171.623 242.894 171.154 242.825 170.78 242.686C170.418 242.537 170.124 242.318 169.9 242.03C169.676 241.742 169.516 241.39 169.42 240.974C169.335 240.548 169.292 240.057 169.292 239.502L169.292 232.078L170.78 231.822L170.78 234.398Z" fill="white"/>
<g clip-path="url(#clip0_158_44)">
<path d="M474.793 238.546C474.793 239.929 474.384 241.28 473.616 242.429C472.848 243.578 471.757 244.474 470.48 245.003C469.204 245.532 467.799 245.671 466.443 245.402C465.088 245.133 463.842 244.468 462.864 243.491C461.887 242.514 461.221 241.27 460.95 239.914C460.68 238.559 460.817 237.154 461.345 235.877C461.873 234.599 462.768 233.507 463.916 232.739C465.065 231.97 466.415 231.559 467.797 231.557L467.804 231.557C471.667 231.557 474.793 234.687 474.793 238.546ZM456.828 231.633C452.945 231.633 449.832 234.687 449.832 238.508C449.832 242.371 452.865 245.363 456.766 245.363C457.868 245.363 458.815 245.145 459.979 244.599L459.979 241.583C458.956 242.609 458.048 243.021 456.887 243.021C454.306 243.021 452.475 241.148 452.475 238.488C452.475 235.966 454.365 233.976 456.769 233.976C457.992 233.976 458.918 234.411 459.982 235.454L459.982 232.438C459.015 231.909 457.93 231.632 456.828 231.633V231.633ZM445.247 236.971C443.71 236.401 443.257 236.028 443.257 235.316C443.257 234.49 444.062 233.858 445.168 233.858C445.935 233.858 446.567 234.173 447.234 234.922L448.574 233.167C447.512 232.221 446.138 231.701 444.715 231.709C442.39 231.709 440.618 233.323 440.618 235.472C440.618 237.282 441.443 238.208 443.852 239.075C444.857 239.431 445.365 239.666 445.624 239.825C445.859 239.965 446.054 240.165 446.188 240.404C446.323 240.642 446.392 240.912 446.391 241.186C446.391 242.25 445.544 243.038 444.401 243.038C443.178 243.038 442.193 242.426 441.606 241.286L439.951 242.879C441.133 244.613 442.549 245.38 444.501 245.38C447.165 245.38 449.03 243.608 449.03 241.065C449.023 238.982 448.16 238.039 445.247 236.971V236.971ZM507.338 232.673C507.339 232.938 507.235 233.193 507.048 233.381C506.862 233.57 506.608 233.677 506.343 233.679C506.211 233.679 506.08 233.653 505.958 233.603C505.836 233.553 505.725 233.479 505.631 233.385C505.538 233.292 505.464 233.181 505.413 233.058C505.363 232.936 505.337 232.805 505.338 232.673L505.338 232.663C505.331 232.527 505.351 232.39 505.399 232.262C505.446 232.134 505.519 232.017 505.613 231.918C505.707 231.819 505.821 231.741 505.946 231.687C506.072 231.634 506.207 231.607 506.344 231.608C506.48 231.608 506.615 231.637 506.74 231.692C506.865 231.746 506.978 231.826 507.071 231.926C507.164 232.026 507.236 232.143 507.282 232.272C507.328 232.4 507.347 232.537 507.338 232.673V232.673ZM507.134 232.677C507.136 232.57 507.117 232.464 507.078 232.365C507.039 232.266 506.981 232.175 506.906 232.098C506.832 232.022 506.744 231.96 506.646 231.918C506.548 231.876 506.443 231.853 506.336 231.851C506.229 231.852 506.123 231.874 506.025 231.916C505.927 231.958 505.838 232.019 505.763 232.096C505.688 232.173 505.63 232.264 505.591 232.364C505.551 232.463 505.532 232.57 505.535 232.677C505.535 233.133 505.894 233.502 506.336 233.502C506.443 233.501 506.548 233.478 506.646 233.435C506.744 233.393 506.832 233.332 506.906 233.255C506.981 233.178 507.039 233.088 507.078 232.988C507.117 232.889 507.136 232.783 507.134 232.677V232.677ZM436.417 245.066L438.98 245.066L438.98 231.927L436.417 231.927L436.417 245.066V245.066ZM480.3 240.754L476.797 231.93L473.999 231.93L479.575 245.404L480.953 245.404L486.63 231.93L483.852 231.93L480.3 240.754V240.754ZM487.784 245.066L495.053 245.066L495.053 242.841L490.347 242.841L490.347 239.293L494.88 239.293L494.88 237.068L490.347 237.068L490.347 234.152L495.053 234.152L495.053 231.927L487.784 231.927L487.784 245.066ZM506.471 232.777L506.851 233.254L506.516 233.254L506.191 232.804L506.191 233.254L505.915 233.254L505.915 232.1L506.284 232.1C506.564 232.1 506.72 232.224 506.72 232.456C506.723 232.614 506.633 232.732 506.471 232.777ZM506.45 232.459C506.45 232.359 506.378 232.31 506.243 232.31L506.195 232.31L506.195 232.611L506.243 232.611C506.378 232.611 506.45 232.563 506.45 232.459ZM502.208 239.531L506.343 245.066L503.192 245.066L499.644 239.787L499.309 239.787L499.309 245.066L496.749 245.066L496.749 231.927L500.549 231.927C503.503 231.927 505.2 233.347 505.2 235.807C505.2 237.821 504.136 239.141 502.208 239.531V239.531ZM502.564 235.945C502.564 234.667 501.696 234 500.1 234L499.313 234L499.313 237.98L500.062 237.98C501.696 237.976 502.564 237.265 502.564 235.945V235.945ZM435.239 238.508C435.234 239.472 435.018 240.423 434.606 241.295C434.194 242.166 433.596 242.937 432.855 243.553C431.594 244.599 430.156 245.069 428.166 245.069L424.425 245.069L424.425 231.93L428.187 231.93C432.34 231.93 435.239 234.629 435.239 238.508ZM432.599 238.488C432.599 237.23 432.067 236.007 431.179 235.216C430.333 234.449 429.327 234.152 427.672 234.152L426.985 234.152L426.985 242.841L427.672 242.841C429.327 242.841 430.374 242.523 431.179 241.797C432.064 241.01 432.599 239.749 432.599 238.488V238.488Z" fill="white"/>
</g>
<rect x="126.525" y="140.979" width="440.906" height="243.485" rx="20" transform="rotate(6.67 126.525 140.979)" fill="url(#paint1_linear_158_44)"/>
<path fill-rule="evenodd" clip-rule="evenodd" d="M129.257 149.724C126.545 152.707 124.706 156.536 124.202 160.845L100.567 362.953C99.2844 373.924 107.138 383.858 118.109 385.141L516.302 431.706C526.209 432.865 535.271 426.572 537.879 417.262C547.008 348.384 497.366 242.146 185.257 147.849L146.39 143.304C145.974 143.255 145.56 143.219 145.147 143.197L129.257 149.724Z" fill="white" fill-opacity="0.06"/>
<path d="M138.649 350.012L138.903 347.834L133.437 347.195L133.574 346.019L139.278 338.841L141.217 339.068L140.303 346.887L141.956 347.08L141.827 348.176L140.175 347.983L139.92 350.16L138.649 350.012ZM134.757 346.238L139.032 346.738L139.825 339.952L139.762 339.945L134.757 346.238ZM151.294 341.422L146.336 340.842L145.522 345.048L145.633 345.061C145.952 344.723 146.293 344.467 146.657 344.295C147.022 344.112 147.501 344.056 148.094 344.125C148.582 344.182 149.017 344.313 149.401 344.519C149.797 344.716 150.126 344.98 150.388 345.311C150.65 345.643 150.841 346.03 150.961 346.474C151.082 346.907 151.111 347.393 151.048 347.934C150.985 348.474 150.842 348.962 150.619 349.398C150.397 349.823 150.103 350.181 149.736 350.471C149.371 350.75 148.944 350.953 148.457 351.078C147.97 351.204 147.43 351.232 146.836 351.162C146.37 351.108 145.958 351.006 145.599 350.857C145.252 350.709 144.945 350.528 144.68 350.314C144.426 350.102 144.206 349.872 144.02 349.625C143.834 349.378 143.67 349.122 143.529 348.859L144.62 348.213C144.742 348.453 144.867 348.671 144.994 348.869C145.132 349.068 145.294 349.248 145.479 349.409C145.665 349.56 145.881 349.687 146.127 349.791C146.372 349.895 146.665 349.966 147.004 350.006C147.767 350.095 148.373 349.957 148.824 349.591C149.286 349.226 149.559 348.678 149.645 347.947L149.66 347.82C149.745 347.089 149.605 346.492 149.241 346.031C148.876 345.569 148.307 345.293 147.533 345.203C147.003 345.141 146.58 345.183 146.262 345.328C145.955 345.475 145.664 345.666 145.389 345.903L144.28 345.612L145.391 339.556L151.429 340.262L151.294 341.422ZM160.823 342.537L155.864 341.957L155.05 346.163L155.162 346.176C155.48 345.837 155.822 345.582 156.186 345.409C156.551 345.227 157.03 345.17 157.623 345.239C158.11 345.296 158.546 345.428 158.93 345.634C159.326 345.83 159.655 346.094 159.917 346.426C160.179 346.757 160.37 347.144 160.49 347.588C160.611 348.021 160.64 348.508 160.577 349.048C160.513 349.588 160.37 350.076 160.148 350.512C159.926 350.937 159.632 351.295 159.265 351.585C158.899 351.864 158.473 352.067 157.986 352.192C157.499 352.318 156.958 352.346 156.365 352.277C155.899 352.222 155.487 352.12 155.128 351.971C154.78 351.823 154.474 351.642 154.209 351.429C153.955 351.216 153.734 350.986 153.549 350.739C153.363 350.492 153.199 350.237 153.058 349.973L154.149 349.327C154.271 349.567 154.396 349.786 154.523 349.983C154.661 350.182 154.822 350.362 155.008 350.523C155.194 350.674 155.41 350.801 155.656 350.905C155.901 351.009 156.194 351.081 156.533 351.12C157.295 351.21 157.902 351.071 158.353 350.705C158.815 350.34 159.088 349.792 159.174 349.061L159.188 348.934C159.274 348.203 159.134 347.607 158.769 347.145C158.405 346.684 157.835 346.408 157.062 346.317C156.532 346.255 156.109 346.297 155.791 346.443C155.484 346.589 155.193 346.781 154.918 347.017L153.808 346.726L154.919 340.67L160.958 341.376L160.823 342.537ZM165.989 353.402C165.407 353.334 164.893 353.177 164.449 352.932C164.007 352.676 163.642 352.349 163.356 351.951C163.082 351.543 162.885 351.063 162.767 350.512C162.66 349.963 162.644 349.36 162.721 348.703C162.818 347.876 163.03 347.117 163.358 346.425C163.698 345.724 164.093 345.099 164.544 344.55C165.006 343.992 165.503 343.513 166.033 343.114C166.564 342.703 167.074 342.382 167.563 342.149L169.279 342.35C168.625 342.713 168.035 343.074 167.51 343.431C166.995 343.79 166.531 344.176 166.118 344.589C165.705 344.992 165.347 345.439 165.043 345.93C164.74 346.41 164.471 346.964 164.236 347.591L164.312 347.632C164.63 347.208 165.024 346.873 165.493 346.627C165.963 346.37 166.543 346.282 167.231 346.363C167.719 346.42 168.154 346.551 168.538 346.757C168.922 346.963 169.245 347.232 169.507 347.563C169.769 347.895 169.955 348.281 170.064 348.724C170.184 349.167 170.214 349.649 170.153 350.168C170.09 350.708 169.942 351.196 169.708 351.63C169.476 352.054 169.177 352.411 168.81 352.701C168.455 352.982 168.034 353.185 167.546 353.31C167.07 353.437 166.551 353.468 165.989 353.402ZM166.105 352.272C166.868 352.361 167.48 352.223 167.942 351.859C168.414 351.495 168.694 350.937 168.782 350.185L168.797 350.058C168.885 349.305 168.741 348.698 168.365 348.235C168.001 347.774 167.437 347.498 166.674 347.409C165.911 347.32 165.294 347.457 164.822 347.821C164.36 348.186 164.085 348.744 163.997 349.496L163.983 349.624C163.895 350.376 164.033 350.983 164.398 351.444C164.773 351.907 165.343 352.183 166.105 352.272ZM183.236 351.005L183.392 349.67L188.001 350.209L187.844 351.544L183.236 351.005ZM208.467 348.108L203.508 347.528L202.694 351.734L202.806 351.747C203.124 351.409 203.466 351.153 203.83 350.981C204.195 350.798 204.674 350.741 205.267 350.811C205.754 350.868 206.19 350.999 206.574 351.205C206.97 351.402 207.299 351.666 207.561 351.997C207.823 352.329 208.014 352.716 208.134 353.16C208.255 353.593 208.284 354.079 208.221 354.62C208.158 355.16 208.015 355.648 207.792 356.084C207.57 356.509 207.276 356.866 206.909 357.156C206.544 357.436 206.117 357.638 205.63 357.764C205.143 357.89 204.602 357.918 204.009 357.848C203.543 357.794 203.131 357.692 202.772 357.543C202.424 357.395 202.118 357.214 201.853 357C201.599 356.788 201.379 356.558 201.193 356.311C201.007 356.064 200.843 355.808 200.702 355.545L201.793 354.899C201.915 355.139 202.04 355.357 202.167 355.555C202.305 355.754 202.466 355.934 202.652 356.095C202.838 356.245 203.054 356.373 203.3 356.477C203.545 356.581 203.838 356.652 204.177 356.692C204.939 356.781 205.546 356.643 205.997 356.277C206.459 355.912 206.732 355.364 206.818 354.633L206.833 354.506C206.918 353.775 206.778 353.178 206.413 352.717C206.049 352.255 205.479 351.979 204.706 351.889C204.176 351.827 203.753 351.869 203.435 352.014C203.128 352.161 202.837 352.352 202.562 352.589L201.453 352.298L202.563 346.242L208.602 346.948L208.467 348.108ZM213.633 358.974C213.051 358.906 212.537 358.749 212.094 358.504C211.651 358.248 211.286 357.921 211 357.522C210.726 357.114 210.529 356.635 210.411 356.084C210.304 355.534 210.288 354.931 210.365 354.274C210.462 353.448 210.674 352.689 211.002 351.997C211.342 351.296 211.737 350.671 212.188 350.122C212.65 349.564 213.147 349.085 213.677 348.685C214.208 348.275 214.718 347.953 215.207 347.72L216.923 347.921C216.269 348.285 215.679 348.645 215.154 349.003C214.639 349.362 214.175 349.748 213.762 350.161C213.35 350.564 212.991 351.011 212.687 351.501C212.384 351.981 212.115 352.535 211.88 353.163L211.956 353.204C212.274 352.779 212.668 352.444 213.137 352.198C213.607 351.942 214.187 351.854 214.875 351.934C215.363 351.991 215.798 352.123 216.182 352.329C216.566 352.535 216.889 352.804 217.151 353.135C217.413 353.466 217.599 353.853 217.708 354.295C217.828 354.739 217.858 355.22 217.797 355.74C217.734 356.28 217.586 356.767 217.352 357.202C217.12 357.626 216.821 357.983 216.454 358.273C216.099 358.553 215.678 358.756 215.191 358.882C214.714 359.009 214.195 359.039 213.633 358.974ZM213.749 357.844C214.512 357.933 215.124 357.795 215.586 357.43C216.058 357.067 216.338 356.509 216.426 355.756L216.441 355.629C216.529 354.877 216.385 354.27 216.01 353.807C215.645 353.345 215.081 353.07 214.318 352.981C213.555 352.892 212.938 353.029 212.466 353.392C212.004 353.757 211.729 354.316 211.642 355.068L211.627 355.195C211.539 355.947 211.677 356.554 212.042 357.016C212.417 357.478 212.987 357.754 213.749 357.844ZM224.408 360.041L224.663 357.863L219.196 357.224L219.333 356.048L225.038 348.87L226.977 349.097L226.062 356.916L227.715 357.109L227.587 358.205L225.934 358.012L225.679 360.189L224.408 360.041ZM220.516 356.267L224.791 356.767L225.584 349.981L225.521 349.974L220.516 356.267ZM236.464 361.45L229.058 360.584L229.218 359.218L233.311 356.313C233.908 355.889 234.412 355.443 234.821 354.976C235.231 354.497 235.47 353.972 235.536 353.4L235.559 353.209C235.637 352.542 235.522 352.008 235.215 351.607C234.908 351.195 234.411 350.949 233.722 350.868C233.044 350.789 232.499 350.902 232.088 351.209C231.688 351.506 231.364 351.93 231.117 352.481L229.978 351.896C230.122 351.58 230.302 351.279 230.518 350.993C230.746 350.697 231.017 350.445 231.332 350.234C231.646 350.024 232.014 349.868 232.433 349.767C232.864 349.667 233.349 349.649 233.89 349.712C234.441 349.776 234.919 349.913 235.324 350.121C235.74 350.331 236.074 350.596 236.326 350.915C236.59 351.236 236.772 351.601 236.875 352.01C236.988 352.421 237.017 352.859 236.963 353.325C236.913 353.749 236.803 354.139 236.633 354.495C236.473 354.852 236.262 355.187 236 355.5C235.748 355.814 235.45 356.118 235.104 356.41C234.77 356.693 234.399 356.972 233.991 357.247L230.576 359.586L236.599 360.29L236.464 361.45ZM249.938 358.805L250.094 357.471L254.702 358.009L254.546 359.344L249.938 358.805ZM270.79 365.658C270.112 365.579 269.544 365.383 269.087 365.072C268.63 364.75 268.272 364.327 268.011 363.803C267.75 363.278 267.587 362.652 267.522 361.925C267.456 361.198 267.477 360.379 267.584 359.468C267.689 358.567 267.857 357.77 268.089 357.078C268.321 356.375 268.625 355.798 269 355.348C269.375 354.898 269.82 354.574 270.338 354.377C270.856 354.169 271.454 354.105 272.132 354.184C272.81 354.263 273.377 354.464 273.834 354.786C274.291 355.097 274.651 355.515 274.911 356.039C275.172 356.564 275.335 357.195 275.399 357.933C275.464 358.66 275.444 359.474 275.339 360.374C275.232 361.286 275.063 362.087 274.832 362.78C274.601 363.472 274.298 364.044 273.923 364.494C273.548 364.944 273.101 365.273 272.583 365.481C272.066 365.678 271.468 365.737 270.79 365.658ZM270.926 364.498C271.371 364.55 271.762 364.51 272.1 364.377C272.439 364.234 272.722 364.015 272.95 363.72C273.189 363.425 273.381 363.061 273.529 362.627C273.677 362.183 273.785 361.68 273.85 361.119L274.062 359.307C274.127 358.756 274.138 358.247 274.096 357.78C274.054 357.314 273.95 356.91 273.786 356.568C273.633 356.228 273.407 355.955 273.109 355.748C272.812 355.531 272.441 355.396 271.996 355.344C271.551 355.292 271.16 355.338 270.821 355.481C270.483 355.613 270.195 355.826 269.956 356.12C269.729 356.416 269.54 356.786 269.392 357.23C269.243 357.675 269.137 358.172 269.072 358.723L268.86 360.535C268.795 361.097 268.783 361.611 268.825 362.077C268.868 362.533 268.967 362.932 269.12 363.272C269.284 363.613 269.515 363.892 269.812 364.11C270.11 364.316 270.481 364.446 270.926 364.498ZM271.352 360.859C270.981 360.815 270.73 360.711 270.599 360.545C270.479 360.381 270.431 360.192 270.455 359.981L270.496 359.631C270.521 359.419 270.611 359.247 270.766 359.115C270.932 358.984 271.2 358.94 271.571 358.983C271.942 359.027 272.187 359.131 272.308 359.295C272.439 359.461 272.492 359.649 272.467 359.861L272.426 360.211C272.401 360.423 272.306 360.594 272.14 360.725C271.985 360.858 271.722 360.902 271.352 360.859ZM280.335 366.774C279.752 366.706 279.239 366.549 278.795 366.304C278.353 366.048 277.988 365.721 277.702 365.322C277.427 364.914 277.231 364.435 277.113 363.884C277.005 363.335 276.99 362.731 277.067 362.075C277.163 361.248 277.376 360.489 277.704 359.797C278.043 359.096 278.439 358.471 278.889 357.922C279.352 357.364 279.848 356.885 280.378 356.485C280.91 356.075 281.42 355.753 281.909 355.521L283.625 355.721C282.97 356.085 282.381 356.446 281.855 356.803C281.341 357.162 280.877 357.548 280.464 357.961C280.051 358.364 279.693 358.811 279.389 359.302C279.085 359.782 278.817 360.335 278.582 360.963L278.658 361.004C278.976 360.58 279.37 360.244 279.839 359.999C280.309 359.742 280.888 359.654 281.577 359.735C282.064 359.792 282.5 359.923 282.884 360.129C283.268 360.335 283.591 360.604 283.853 360.935C284.115 361.266 284.301 361.653 284.41 362.096C284.53 362.539 284.56 363.021 284.499 363.54C284.436 364.08 284.287 364.568 284.054 365.002C283.822 365.426 283.522 365.783 283.156 366.073C282.801 366.354 282.379 366.557 281.892 366.682C281.416 366.809 280.897 366.84 280.335 366.774ZM280.451 365.644C281.214 365.733 281.826 365.595 282.288 365.23C282.76 364.867 283.04 364.309 283.128 363.557L283.143 363.43C283.23 362.677 283.087 362.07 282.711 361.607C282.346 361.146 281.783 360.87 281.02 360.781C280.257 360.692 279.64 360.829 279.167 361.193C278.706 361.558 278.431 362.116 278.343 362.868L278.328 362.995C278.24 363.748 278.379 364.354 278.744 364.816C279.119 365.279 279.688 365.555 280.451 365.644ZM294.442 361.11C294.345 361.937 294.127 362.7 293.788 363.402C293.46 364.094 293.064 364.719 292.602 365.277C292.14 365.824 291.644 366.303 291.113 366.713C290.593 367.115 290.089 367.431 289.6 367.664L287.884 367.464C288.538 367.1 289.123 366.739 289.638 366.38C290.163 366.022 290.631 365.642 291.044 365.239C291.457 364.826 291.815 364.379 292.118 363.899C292.423 363.409 292.692 362.849 292.927 362.222L292.851 362.181C292.522 362.604 292.123 362.944 291.652 363.2C291.194 363.447 290.62 363.531 289.932 363.45C289.444 363.393 289.003 363.261 288.609 363.054C288.225 362.848 287.902 362.579 287.64 362.248C287.389 361.918 287.202 361.536 287.081 361.103C286.972 360.661 286.948 360.175 287.01 359.645C287.073 359.105 287.216 358.622 287.437 358.197C287.67 357.762 287.97 357.405 288.336 357.126C288.702 356.836 289.124 356.628 289.601 356.501C290.088 356.375 290.612 356.345 291.174 356.411C291.757 356.479 292.269 356.641 292.712 356.897C293.156 357.142 293.515 357.469 293.789 357.877C294.076 358.275 294.273 358.749 294.38 359.299C294.498 359.85 294.519 360.453 294.442 361.11ZM290.489 362.404C291.252 362.493 291.864 362.355 292.326 361.99C292.798 361.627 293.078 361.069 293.166 360.317L293.181 360.19C293.268 359.437 293.125 358.83 292.749 358.367C292.384 357.906 291.821 357.63 291.058 357.541C290.295 357.452 289.678 357.589 289.205 357.953C288.744 358.318 288.469 358.876 288.381 359.628L288.366 359.755C288.278 360.508 288.417 361.114 288.782 361.576C289.157 362.039 289.726 362.315 290.489 362.404ZM303.755 359.251L298.797 358.672L297.983 362.877L298.094 362.89C298.413 362.552 298.754 362.296 299.118 362.124C299.483 361.941 299.962 361.885 300.555 361.954C301.043 362.011 301.478 362.143 301.862 362.349C302.258 362.545 302.587 362.809 302.849 363.14C303.111 363.472 303.302 363.859 303.422 364.303C303.543 364.736 303.572 365.223 303.509 365.763C303.446 366.303 303.303 366.791 303.08 367.227C302.858 367.652 302.564 368.01 302.197 368.3C301.832 368.579 301.405 368.782 300.918 368.907C300.431 369.033 299.891 369.061 299.297 368.992C298.831 368.937 298.419 368.835 298.06 368.686C297.713 368.538 297.406 368.357 297.141 368.143C296.887 367.931 296.667 367.701 296.481 367.454C296.295 367.207 296.132 366.951 295.991 366.688L297.081 366.042C297.203 366.282 297.328 366.501 297.455 366.698C297.593 366.897 297.755 367.077 297.94 367.238C298.126 367.389 298.342 367.516 298.588 367.62C298.833 367.724 299.126 367.796 299.465 367.835C300.228 367.924 300.834 367.786 301.285 367.42C301.747 367.055 302.02 366.507 302.106 365.776L302.121 365.649C302.206 364.918 302.066 364.322 301.702 363.86C301.337 363.399 300.768 363.123 299.994 363.032C299.464 362.97 299.041 363.012 298.723 363.157C298.416 363.304 298.125 363.496 297.85 363.732L296.741 363.441L297.852 357.385L303.89 358.091L303.755 359.251ZM316.639 366.606L316.795 365.271L321.404 365.81L321.248 367.145L316.639 366.606ZM341.87 363.709L336.912 363.129L336.098 367.335L336.209 367.348C336.528 367.009 336.869 366.754 337.233 366.581C337.598 366.399 338.077 366.342 338.671 366.411C339.158 366.468 339.594 366.6 339.978 366.806C340.373 367.002 340.702 367.266 340.964 367.598C341.226 367.929 341.417 368.317 341.537 368.76C341.658 369.193 341.687 369.68 341.624 370.22C341.561 370.76 341.418 371.248 341.195 371.684C340.974 372.109 340.679 372.467 340.313 372.757C339.947 373.036 339.521 373.239 339.033 373.365C338.546 373.49 338.006 373.518 337.413 373.449C336.946 373.394 336.534 373.292 336.176 373.143C335.828 372.995 335.521 372.814 335.256 372.601C335.002 372.388 334.782 372.159 334.596 371.911C334.41 371.664 334.247 371.409 334.106 371.145L335.196 370.499C335.318 370.739 335.443 370.958 335.57 371.155C335.708 371.354 335.87 371.534 336.055 371.695C336.241 371.846 336.458 371.973 336.703 372.077C336.949 372.181 337.241 372.253 337.58 372.292C338.343 372.382 338.95 372.243 339.401 371.877C339.862 371.512 340.136 370.964 340.221 370.233L340.236 370.106C340.321 369.375 340.182 368.779 339.817 368.317C339.452 367.856 338.883 367.58 338.109 367.489C337.58 367.427 337.156 367.469 336.838 367.615C336.531 367.761 336.24 367.953 335.966 368.189L334.856 367.898L335.967 361.842L342.006 362.549L341.87 363.709ZM343.626 373.982L343.762 372.822L346.94 373.194L347.987 364.247L347.875 364.234L344.774 366.513L344.094 365.58L347.355 363.174L349.437 363.418L348.275 373.35L351.199 373.692L351.064 374.852L343.626 373.982ZM356.566 375.689C355.983 375.62 355.47 375.464 355.026 375.219C354.583 374.963 354.219 374.636 353.932 374.237C353.658 373.829 353.462 373.35 353.343 372.799C353.236 372.249 353.22 371.646 353.297 370.989C353.394 370.163 353.606 369.404 353.934 368.712C354.274 368.01 354.669 367.385 355.12 366.837C355.583 366.279 356.079 365.8 356.609 365.4C357.14 364.99 357.65 364.668 358.139 364.435L359.856 364.636C359.201 365 358.611 365.36 358.086 365.718C357.571 366.076 357.108 366.462 356.694 366.876C356.282 367.279 355.923 367.725 355.619 368.216C355.316 368.696 355.047 369.25 354.813 369.878L354.888 369.919C355.207 369.494 355.6 369.159 356.069 368.913C356.539 368.657 357.119 368.569 357.808 368.649C358.295 368.706 358.731 368.838 359.115 369.044C359.499 369.25 359.822 369.518 360.084 369.85C360.346 370.181 360.531 370.568 360.641 371.01C360.76 371.454 360.79 371.935 360.729 372.454C360.666 372.995 360.518 373.482 360.285 373.917C360.052 374.34 359.753 374.697 359.386 374.987C359.031 375.268 358.61 375.471 358.123 375.597C357.646 375.724 357.127 375.754 356.566 375.689ZM356.682 374.558C357.444 374.648 358.057 374.51 358.518 374.145C358.99 373.781 359.27 373.223 359.358 372.471L359.373 372.344C359.461 371.592 359.317 370.984 358.942 370.522C358.577 370.06 358.013 369.785 357.25 369.696C356.487 369.606 355.87 369.744 355.398 370.107C354.936 370.472 354.662 371.031 354.574 371.783L354.559 371.91C354.471 372.662 354.609 373.269 354.974 373.731C355.35 374.193 355.919 374.469 356.682 374.558ZM366.078 376.801C365.432 376.726 364.875 376.58 364.406 376.364C363.938 376.137 363.557 375.862 363.262 375.537C362.978 375.214 362.774 374.847 362.65 374.435C362.537 374.024 362.507 373.591 362.56 373.136C362.65 372.373 362.927 371.793 363.392 371.396C363.857 371 364.439 370.751 365.139 370.65L365.153 370.523C364.584 370.252 364.15 369.874 363.852 369.388C363.567 368.893 363.461 368.328 363.535 367.692C363.634 366.844 364.026 366.208 364.709 365.783C365.393 365.348 366.297 365.196 367.42 365.327C368.543 365.459 369.388 365.815 369.953 366.397C370.52 366.968 370.754 367.677 370.655 368.525C370.58 369.16 370.342 369.685 369.939 370.1C369.548 370.505 369.044 370.774 368.427 370.906L368.412 371.033C369.069 371.293 369.578 371.669 369.939 372.162C370.301 372.655 370.437 373.283 370.347 374.046C370.294 374.502 370.16 374.916 369.944 375.288C369.74 375.661 369.456 375.972 369.094 376.219C368.733 376.467 368.298 376.647 367.791 376.76C367.296 376.863 366.725 376.877 366.078 376.801ZM366.21 375.673C366.994 375.764 367.629 375.662 368.115 375.364C368.601 375.066 368.881 374.6 368.955 373.964L368.996 373.614C369.071 372.979 368.906 372.46 368.502 372.058C368.108 371.658 367.514 371.411 366.72 371.318C365.925 371.226 365.285 371.328 364.799 371.625C364.324 371.924 364.049 372.392 363.975 373.027L363.934 373.377C363.859 374.012 364.024 374.531 364.428 374.933C364.832 375.334 365.426 375.581 366.21 375.673ZM366.846 370.238C367.566 370.322 368.13 370.232 368.537 369.968C368.954 369.706 369.196 369.288 369.263 368.716L369.289 368.494C369.356 367.922 369.211 367.459 368.855 367.106C368.51 366.754 367.988 366.537 367.288 366.456C366.589 366.374 366.025 366.464 365.598 366.725C365.18 366.988 364.938 367.405 364.871 367.977L364.845 368.2C364.778 368.772 364.912 369.233 365.247 369.584C365.593 369.936 366.126 370.154 366.846 370.238Z" fill="white"/>
<path d="M145.237 307.732L144.276 315.948C144.222 316.414 144.092 316.829 143.889 317.192C143.685 317.554 143.42 317.851 143.092 318.081C142.775 318.313 142.407 318.479 141.987 318.58C141.568 318.671 141.12 318.688 140.644 318.632C139.796 318.533 139.122 318.234 138.622 317.736C138.123 317.226 137.836 316.564 137.759 315.75L139.062 315.628C139.089 315.857 139.133 316.077 139.194 316.288C139.267 316.49 139.369 316.674 139.5 316.839C139.643 316.996 139.821 317.129 140.033 317.24C140.246 317.351 140.506 317.424 140.813 317.46C141.417 317.531 141.903 317.416 142.271 317.115C142.651 316.805 142.884 316.285 142.969 315.554L143.766 308.736L139.762 308.268L139.897 307.108L145.237 307.732ZM150.729 319.812C150.135 319.742 149.612 319.579 149.159 319.322C148.716 319.066 148.347 318.733 148.052 318.323C147.768 317.903 147.566 317.423 147.447 316.883C147.329 316.332 147.307 315.733 147.383 315.087C147.46 314.43 147.619 313.848 147.861 313.339C148.114 312.831 148.426 312.412 148.798 312.079C149.171 311.736 149.597 311.491 150.076 311.343C150.566 311.196 151.091 311.155 151.653 311.221C152.204 311.285 152.69 311.444 153.111 311.698C153.543 311.952 153.897 312.278 154.173 312.676C154.45 313.062 154.645 313.509 154.757 314.016C154.87 314.524 154.892 315.069 154.824 315.651L154.753 316.255L148.682 315.545L148.638 315.927C148.596 316.287 148.615 316.627 148.696 316.948C148.776 317.269 148.909 317.553 149.095 317.8C149.292 318.049 149.536 318.255 149.829 318.418C150.133 318.571 150.476 318.671 150.857 318.715C151.408 318.78 151.899 318.708 152.332 318.501C152.764 318.294 153.112 317.98 153.376 317.56L154.239 318.305C153.931 318.828 153.47 319.236 152.856 319.529C152.254 319.813 151.544 319.907 150.729 319.812ZM151.53 312.27C151.18 312.229 150.85 312.255 150.538 312.347C150.227 312.44 149.947 312.584 149.698 312.781C149.46 312.978 149.26 313.223 149.097 313.516C148.946 313.799 148.849 314.12 148.807 314.48L148.794 314.592L153.498 315.142L153.518 314.967C153.56 314.607 153.541 314.272 153.459 313.961C153.387 313.652 153.264 313.38 153.087 313.145C152.922 312.9 152.704 312.702 152.431 312.552C152.17 312.404 151.869 312.309 151.53 312.27ZM159.326 320.624L157.345 312.08L158.632 312.231L159.407 315.801L160.245 319.652L160.309 319.66L162.013 316.105L163.591 312.81L164.846 312.957L160.947 320.813L159.326 320.624ZM171.345 311.881C170.974 311.837 170.723 311.733 170.592 311.567C170.463 311.391 170.411 311.186 170.439 310.953L170.468 310.699C170.496 310.466 170.592 310.284 170.758 310.153C170.925 310.011 171.193 309.962 171.564 310.005C171.935 310.049 172.185 310.159 172.315 310.335C172.446 310.501 172.498 310.7 172.471 310.933L172.441 311.187C172.414 311.42 172.317 311.608 172.15 311.749C171.984 311.88 171.716 311.924 171.345 311.881ZM166.709 320.392L169.665 320.737L170.371 314.699L167.415 314.353L167.542 313.272L171.769 313.767L170.936 320.886L173.701 321.21L173.575 322.29L166.583 321.472L166.709 320.392ZM175.984 322.572L176.943 314.372L178.215 314.52L178.058 315.855L178.122 315.863C178.23 315.671 178.359 315.493 178.507 315.328C178.656 315.152 178.829 315.006 179.025 314.889C179.232 314.774 179.468 314.688 179.732 314.633C179.996 314.578 180.297 314.571 180.637 314.61C181.495 314.711 182.151 315.067 182.606 315.678C183.062 316.279 183.231 317.078 183.115 318.074L182.5 323.334L181.229 323.185L181.818 318.148C181.906 317.395 181.806 316.82 181.52 316.421C181.235 316.012 180.775 315.77 180.139 315.696C179.885 315.666 179.632 315.669 179.381 315.704C179.13 315.739 178.902 315.809 178.696 315.914C178.49 316.019 178.318 316.165 178.178 316.353C178.037 316.54 177.952 316.766 177.921 317.031L177.256 322.721L175.984 322.572ZM201.366 319.902L201.776 316.39L201.649 316.375L198.646 321.807L196.977 315.829L196.85 315.814L196.439 319.326L195.789 324.888L194.565 324.745L195.862 313.652L197.579 313.853L198.961 318.976L199.056 318.987L201.583 314.321L203.236 314.515L201.939 325.607L200.715 325.464L201.366 319.902ZM210.88 326.653C210.382 326.594 210.042 326.426 209.86 326.147C209.677 325.868 209.582 325.534 209.574 325.147L209.494 325.138C209.258 325.593 208.923 325.935 208.488 326.164C208.065 326.383 207.52 326.453 206.853 326.375C205.995 326.275 205.337 325.972 204.881 325.468C204.424 324.963 204.241 324.325 204.332 323.551C204.421 322.788 204.765 322.233 205.364 321.884C205.974 321.536 206.899 321.435 208.138 321.58L209.886 321.784L209.981 320.974C210.052 320.37 209.935 319.9 209.631 319.564C209.328 319.217 208.863 319.007 208.238 318.934C207.688 318.869 207.224 318.928 206.849 319.109C206.474 319.28 206.159 319.539 205.904 319.885L205.12 319.149C205.251 318.949 205.418 318.76 205.622 318.579C205.826 318.399 206.068 318.25 206.351 318.133C206.634 318.005 206.95 317.918 207.299 317.873C207.649 317.818 208.031 317.814 208.444 317.862C209.408 317.975 210.143 318.308 210.647 318.861C211.162 319.415 211.369 320.127 211.267 320.995L210.74 325.509L211.884 325.642L211.754 326.755L210.88 326.653ZM207.2 325.336C207.528 325.375 207.829 325.372 208.103 325.329C208.388 325.277 208.639 325.199 208.855 325.095C209.072 324.981 209.245 324.84 209.372 324.672C209.51 324.495 209.592 324.301 209.617 324.089L209.775 322.738L208.027 322.533C207.264 322.444 206.695 322.485 206.321 322.656C205.947 322.827 205.736 323.114 205.689 323.517L205.65 323.85C205.6 324.274 205.711 324.615 205.981 324.872C206.264 325.119 206.67 325.274 207.2 325.336ZM214.1 327.029L215.058 318.829L216.33 318.978L216.174 320.313L216.237 320.32C216.346 320.129 216.474 319.95 216.622 319.785C216.771 319.609 216.944 319.463 217.14 319.346C217.347 319.231 217.583 319.146 217.847 319.091C218.111 319.036 218.413 319.028 218.752 319.068C219.61 319.168 220.266 319.524 220.721 320.136C221.177 320.737 221.347 321.535 221.23 322.531L220.615 327.791L219.344 327.642L219.933 322.605C220.021 321.853 219.922 321.277 219.635 320.879C219.35 320.469 218.89 320.228 218.254 320.153C218 320.124 217.747 320.126 217.496 320.161C217.245 320.196 217.017 320.266 216.811 320.371C216.606 320.476 216.433 320.622 216.293 320.81C216.153 320.998 216.067 321.224 216.036 321.489L215.371 327.178L214.1 327.029ZM230.877 329.942C230.78 330.768 230.364 331.337 229.63 331.648C228.894 331.97 227.838 332.051 226.46 331.89C225.136 331.735 224.203 331.449 223.661 331.031C223.13 330.614 222.903 330.078 222.98 329.421C223.032 328.976 223.188 328.645 223.45 328.429C223.712 328.212 224.061 328.071 224.498 328.004L224.521 327.813C224.301 327.669 224.139 327.5 224.033 327.305C223.926 327.11 223.89 326.875 223.922 326.599C223.971 326.175 224.146 325.874 224.446 325.694C224.757 325.516 225.131 325.398 225.567 325.342L225.574 325.278C225.092 324.996 224.733 324.621 224.498 324.153C224.273 323.687 224.195 323.162 224.263 322.58C224.311 322.166 224.43 321.794 224.619 321.461C224.808 321.129 225.055 320.857 225.359 320.646C225.675 320.425 226.037 320.269 226.445 320.177C226.853 320.085 227.295 320.067 227.772 320.123C228.387 320.194 228.914 320.369 229.354 320.646L229.371 320.503C229.408 320.185 229.513 319.929 229.686 319.734C229.859 319.54 230.126 319.463 230.486 319.506L231.996 319.682L231.866 320.795L230.022 320.579L229.957 321.135C230.224 321.424 230.417 321.753 230.535 322.121C230.653 322.489 230.686 322.89 230.635 323.325C230.587 323.738 230.463 324.11 230.263 324.441C230.074 324.773 229.827 325.051 229.522 325.273C229.218 325.484 228.856 325.635 228.438 325.726C228.03 325.818 227.587 325.836 227.11 325.78C226.973 325.764 226.841 325.743 226.715 325.718C226.589 325.692 226.464 325.661 226.339 325.625C226.21 325.632 226.073 325.653 225.929 325.69C225.786 325.716 225.652 325.765 225.525 325.836C225.4 325.897 225.294 325.976 225.208 326.073C225.121 326.17 225.07 326.288 225.054 326.425C225.025 326.669 225.128 326.848 225.361 326.961C225.596 327.063 225.91 327.138 226.302 327.184L228.114 327.395C229.173 327.519 229.918 327.81 230.347 328.269C230.778 328.717 230.955 329.274 230.877 329.942ZM229.677 329.866C229.716 329.537 229.614 329.257 229.373 329.025C229.13 328.803 228.681 328.654 228.024 328.577L225.179 328.244C224.602 328.402 224.283 328.741 224.223 329.26C224.181 329.62 224.288 329.944 224.544 330.232C224.799 330.53 225.26 330.719 225.928 330.797L227.167 330.942C227.909 331.028 228.5 330.979 228.94 330.794C229.38 330.62 229.625 330.311 229.677 329.866ZM227.226 324.795C227.861 324.869 228.345 324.775 228.676 324.513C229.018 324.253 229.218 323.879 229.275 323.391L229.328 322.93C229.385 322.443 229.277 322.038 229.003 321.716C228.741 321.385 228.292 321.182 227.657 321.108C227.021 321.033 226.538 321.127 226.206 321.389C225.876 321.641 225.683 322.01 225.626 322.497L225.572 322.958C225.515 323.446 225.617 323.855 225.879 324.186C226.141 324.518 226.59 324.72 227.226 324.795ZM238.462 328.525L238.399 328.518C238.29 328.709 238.161 328.893 238.012 329.068C237.864 329.234 237.686 329.374 237.48 329.489C237.283 329.606 237.053 329.692 236.789 329.747C236.525 329.802 236.223 329.81 235.884 329.77C235.026 329.67 234.369 329.319 233.913 328.718C233.458 328.106 233.289 327.303 233.406 326.307L234.021 321.047L235.292 321.195L234.703 326.233C234.615 326.985 234.714 327.566 234.999 327.975C235.285 328.374 235.746 328.61 236.382 328.684C236.636 328.714 236.889 328.712 237.14 328.676C237.391 328.641 237.619 328.571 237.825 328.467C238.03 328.362 238.202 328.221 238.341 328.044C238.481 327.856 238.567 327.625 238.6 327.349L239.265 321.66L240.536 321.809L239.577 330.009L238.306 329.86L238.462 328.525ZM244.172 318.625L245.444 318.774L244.576 326.195L244.639 326.203L246.228 325.019L249.255 322.828L250.812 323.01L247.036 325.823L250.25 331.257L248.677 331.073L245.981 326.44L244.416 327.562L244.069 330.534L242.797 330.385L244.172 318.625ZM257.104 321.91C256.733 321.866 256.483 321.762 256.352 321.596C256.222 321.42 256.171 321.215 256.198 320.982L256.228 320.728C256.255 320.495 256.351 320.313 256.517 320.182C256.684 320.04 256.953 319.991 257.324 320.034C257.694 320.078 257.945 320.188 258.074 320.364C258.205 320.529 258.257 320.729 258.23 320.962L258.2 321.216C258.173 321.449 258.076 321.637 257.909 321.778C257.743 321.909 257.475 321.953 257.104 321.91ZM252.468 330.421L255.424 330.766L256.13 324.728L253.175 324.382L253.301 323.301L257.528 323.796L256.695 330.915L259.461 331.238L259.334 332.319L252.342 331.501L252.468 330.421ZM268.567 325.086L269.838 325.235L264.601 334.755C264.478 334.977 264.349 335.166 264.212 335.322C264.075 335.488 263.92 335.615 263.749 335.703C263.576 335.801 263.376 335.863 263.147 335.89C262.917 335.928 262.649 335.928 262.341 335.893L261.134 335.751L261.26 334.671L263.167 334.894L264.353 332.745L261.987 324.317L263.291 324.469L264.272 328.064L265.131 331.322L265.195 331.329L266.783 328.357L268.567 325.086ZM277.581 334.453C277.083 334.395 276.743 334.226 276.561 333.947C276.379 333.668 276.284 333.335 276.276 332.947L276.196 332.938C275.96 333.393 275.625 333.735 275.19 333.964C274.767 334.183 274.222 334.253 273.554 334.175C272.696 334.075 272.039 333.773 271.582 333.268C271.126 332.764 270.943 332.125 271.033 331.351C271.123 330.589 271.467 330.033 272.066 329.684C272.676 329.336 273.601 329.235 274.84 329.38L276.588 329.585L276.683 328.774C276.754 328.17 276.637 327.7 276.332 327.364C276.029 327.017 275.565 326.807 274.94 326.734C274.389 326.669 273.926 326.728 273.55 326.91C273.176 327.081 272.861 327.339 272.606 327.685L271.822 326.949C271.953 326.75 272.12 326.56 272.324 326.38C272.527 326.199 272.77 326.051 273.052 325.933C273.336 325.805 273.652 325.719 274.001 325.674C274.351 325.618 274.733 325.614 275.146 325.663C276.11 325.775 276.844 326.108 277.349 326.661C277.864 327.215 278.071 327.927 277.969 328.796L277.441 333.309L278.586 333.443L278.455 334.555L277.581 334.453ZM273.901 333.137C274.23 333.175 274.531 333.173 274.804 333.129C275.09 333.077 275.341 332.999 275.557 332.895C275.774 332.781 275.946 332.64 276.073 332.472C276.212 332.295 276.294 332.101 276.319 331.889L276.477 330.538L274.729 330.334C273.966 330.244 273.397 330.285 273.023 330.456C272.648 330.627 272.438 330.914 272.391 331.317L272.352 331.65C272.302 332.074 272.413 332.415 272.683 332.672C272.966 332.92 273.372 333.075 273.901 333.137Z" fill="white"/>
<path opacity="0.9" d="M155.38 207.768C154.607 207.677 153.917 207.468 153.311 207.139C152.705 206.811 152.203 206.376 151.805 205.836C151.406 205.295 151.121 204.655 150.95 203.915C150.79 203.166 150.765 202.331 150.872 201.409C150.98 200.488 151.213 199.688 151.572 199.01C151.942 198.323 152.394 197.764 152.928 197.332C153.462 196.901 154.061 196.595 154.727 196.415C155.392 196.235 156.085 196.187 156.805 196.272C157.261 196.325 157.665 196.404 158.018 196.51C158.381 196.617 158.69 196.728 158.945 196.844C159.211 196.961 159.423 197.072 159.583 197.176C159.743 197.281 159.852 197.358 159.91 197.408L159.317 198.627C159.229 198.553 159.099 198.468 158.928 198.372C158.756 198.277 158.558 198.179 158.334 198.077C158.12 197.977 157.878 197.89 157.607 197.815C157.349 197.731 157.082 197.673 156.806 197.641C156.224 197.573 155.687 197.612 155.198 197.759C154.708 197.906 154.277 198.151 153.904 198.494C153.531 198.837 153.222 199.273 152.977 199.803C152.744 200.323 152.588 200.923 152.509 201.601C152.432 202.258 152.437 202.865 152.522 203.422C152.617 203.981 152.796 204.475 153.057 204.903C153.32 205.32 153.667 205.661 154.098 205.926C154.539 206.193 155.067 206.362 155.681 206.434C156.391 206.517 156.988 206.511 157.471 206.418C157.955 206.324 158.32 206.232 158.567 206.143L158.815 207.461C158.735 207.505 158.594 207.558 158.394 207.621C158.194 207.673 157.947 207.719 157.653 207.76C157.358 207.801 157.017 207.825 156.629 207.833C156.242 207.842 155.825 207.82 155.38 207.768ZM164.47 200.035C164.597 200.05 164.739 200.078 164.895 200.117C165.063 200.148 165.225 200.188 165.38 200.238C165.537 200.278 165.677 200.321 165.8 200.368C165.935 200.405 166.034 200.438 166.095 200.467L165.69 201.724C165.578 201.668 165.388 201.598 165.119 201.513C164.861 201.418 164.521 201.346 164.097 201.297C163.821 201.264 163.542 201.264 163.259 201.295C162.988 201.317 162.809 201.334 162.722 201.345L161.91 208.29L160.432 208.117L161.357 200.203C161.722 200.117 162.17 200.051 162.701 200.006C163.234 199.95 163.824 199.96 164.47 200.035ZM166.582 204.664C166.668 203.933 166.848 203.31 167.123 202.794C167.4 202.268 167.734 201.845 168.125 201.526C168.517 201.207 168.951 200.984 169.428 200.857C169.904 200.73 170.381 200.694 170.858 200.75C171.97 200.88 172.782 201.33 173.294 202.098C173.807 202.856 173.98 203.945 173.814 205.365C173.807 205.428 173.797 205.513 173.784 205.619C173.773 205.714 173.757 205.804 173.737 205.887L168.079 205.226C168.043 206.091 168.215 206.772 168.598 207.268C168.98 207.763 169.632 208.065 170.554 208.173C171.073 208.234 171.512 208.242 171.872 208.198C172.243 208.145 172.524 208.087 172.714 208.023L172.775 209.287C172.584 209.361 172.255 209.424 171.787 209.477C171.329 209.531 170.814 209.524 170.242 209.458C169.522 209.373 168.909 209.194 168.404 208.92C167.911 208.637 167.517 208.285 167.223 207.864C166.929 207.443 166.727 206.963 166.618 206.424C166.521 205.876 166.509 205.289 166.582 204.664ZM172.351 204.517C172.439 203.851 172.333 203.285 172.033 202.821C171.745 202.347 171.299 202.074 170.695 202.004C170.356 201.964 170.046 201.998 169.765 202.104C169.496 202.202 169.259 202.346 169.054 202.537C168.849 202.728 168.678 202.955 168.54 203.218C168.412 203.482 168.316 203.755 168.25 204.038L172.351 204.517ZM181.54 203.981C181.378 203.811 181.135 203.638 180.812 203.461C180.489 203.283 180.126 203.171 179.724 203.124C179.3 203.074 178.925 203.111 178.599 203.234C178.285 203.348 178.017 203.531 177.794 203.784C177.572 204.027 177.397 204.329 177.269 204.689C177.141 205.05 177.052 205.443 177.003 205.867C176.89 206.831 177.041 207.605 177.456 208.191C177.872 208.766 178.477 209.1 179.272 209.193C179.674 209.24 180.01 209.263 180.279 209.262C180.559 209.252 180.776 209.234 180.929 209.209L181.54 203.981ZM182.191 198.419L183.699 198.337L182.284 210.431C181.934 210.487 181.489 210.531 180.948 210.565C180.407 210.598 179.792 210.574 179.104 210.494C178.468 210.419 177.908 210.252 177.423 209.991C176.938 209.73 176.537 209.394 176.22 208.981C175.903 208.568 175.675 208.085 175.535 207.531C175.408 206.969 175.383 206.354 175.461 205.686C175.536 205.051 175.683 204.477 175.904 203.966C176.136 203.456 176.432 203.029 176.795 202.685C177.157 202.341 177.579 202.089 178.059 201.931C178.55 201.773 179.092 201.729 179.685 201.799C180.162 201.854 180.573 201.967 180.919 202.136C181.274 202.307 181.536 202.461 181.702 202.598L182.191 198.419ZM186.275 211.139L184.797 210.966L185.763 202.703L187.241 202.875L186.275 211.139ZM186.669 201.294C186.404 201.263 186.186 201.152 186.016 200.96C185.856 200.759 185.794 200.51 185.829 200.213C185.864 199.917 185.981 199.694 186.181 199.546C186.393 199.388 186.631 199.325 186.896 199.356C187.161 199.387 187.373 199.503 187.532 199.704C187.703 199.896 187.771 200.14 187.736 200.436C187.701 200.733 187.578 200.96 187.366 201.118C187.166 201.267 186.934 201.325 186.669 201.294ZM191.165 203.334L194.296 203.7L194.151 204.94L191.021 204.574L190.575 208.388C190.526 208.801 190.518 209.149 190.549 209.432C190.582 209.704 190.652 209.927 190.761 210.101C190.871 210.264 191.017 210.389 191.2 210.475C191.384 210.561 191.602 210.618 191.857 210.648C192.302 210.7 192.662 210.694 192.938 210.63C193.226 210.556 193.425 210.504 193.536 210.474L193.679 211.731C193.522 211.788 193.252 211.848 192.869 211.91C192.484 211.983 192.054 211.992 191.577 211.936C191.016 211.871 190.558 211.747 190.203 211.566C189.86 211.376 189.594 211.125 189.405 210.813C189.216 210.5 189.098 210.132 189.051 209.708C189.016 209.274 189.03 208.782 189.095 208.231L189.957 200.857L191.465 200.776L191.165 203.334Z" fill="white"/>
<g clip-path="url(#clip1_158_44)">
<path d="M487.569 228.942L477.062 247.579L471.703 246.952L469.49 230.837C469.357 229.846 469.186 229.469 468.486 228.976C467.345 228.172 465.404 227.317 463.68 226.723L463.866 226.17L472.494 227.179C473.058 227.244 473.58 227.509 473.965 227.925C474.351 228.342 474.575 228.882 474.598 229.449L475.407 241.041L482.243 228.319L487.569 228.942ZM507.027 244.598C507.653 239.426 500.512 238.302 500.832 235.997C500.93 235.296 501.687 234.626 503.173 234.607C504.908 234.644 506.601 235.15 508.072 236.07L509.447 232.017C507.997 231.269 506.426 230.787 504.806 230.592C499.794 230.006 495.956 232.26 495.478 236.071C495.117 238.888 497.482 240.757 499.294 241.923C501.158 243.114 501.75 243.809 501.639 244.665C501.472 245.981 499.844 246.376 498.382 246.229C495.828 245.97 494.436 245.071 493.319 244.384L491.899 248.569C493.02 249.252 495.15 249.983 497.414 250.269C502.74 250.892 506.532 248.669 507.027 244.598ZM519.511 252.543L524.201 253.091L522.401 233.015L518.072 232.509C517.61 232.45 517.141 232.532 516.726 232.743C516.311 232.955 515.969 233.286 515.744 233.694L506.015 250.965L511.338 251.587L512.739 248.783L519.244 249.543L519.511 252.543ZM514.668 244.938L518.195 237.89L518.872 245.429L514.668 244.938ZM494.814 229.789L488.331 248.897L483.259 248.304L489.747 229.196L494.814 229.789Z" fill="white"/>
</g>
<rect x="155.646" y="101.004" width="440.906" height="243.486" rx="20" transform="rotate(12.53 155.646 101.004)" fill="url(#paint2_linear_158_44)"/>
<path fill-rule="evenodd" clip-rule="evenodd" d="M311.113 213.53C319.724 259.192 327.998 303.062 407.381 318.447C480.222 332.563 524.523 350.068 547.859 368.498L537.565 414.813C535.169 425.596 524.485 432.394 513.703 429.998L122.345 343.021C111.562 340.625 104.764 329.941 107.16 319.158L151.306 120.519C153.703 109.737 164.387 102.938 175.169 105.334L271.018 126.636C299.302 150.905 305.285 182.628 311.113 213.53Z" fill="white" fill-opacity="0.08"/>
<path fill-rule="evenodd" clip-rule="evenodd" d="M170.633 104.86C161.536 104.941 153.364 111.263 151.306 120.525L107.159 319.164C104.763 329.946 111.561 340.63 122.344 343.026L513.702 430.003C518.837 431.145 523.949 430.201 528.155 427.734C555.744 392.63 530.067 349.934 383.692 321.567C307.891 306.878 299.991 264.986 291.768 221.385C282.663 173.104 273.162 122.725 170.633 104.86Z" fill="white" fill-opacity="0.08"/>
<path d="M149.361 302.76L149.837 300.621L144.464 299.426L144.721 298.271L151.128 291.713L153.034 292.136L151.326 299.821L152.95 300.182L152.711 301.259L151.086 300.898L150.611 303.038L149.361 302.76ZM145.875 298.609L150.076 299.543L151.558 292.874L151.496 292.86L145.875 298.609ZM154.15 303.825L154.403 302.684L157.527 303.379L159.482 294.585L159.372 294.561L156.054 296.511L155.473 295.514L158.963 293.454L161.009 293.908L158.839 303.67L161.713 304.309L161.46 305.449L154.15 303.825ZM163.515 305.906L163.769 304.766L166.892 305.46L168.847 296.667L168.737 296.642L165.419 298.593L164.838 297.595L168.328 295.535L170.374 295.99L168.204 305.752L171.078 306.39L170.825 307.531L163.515 305.906ZM172.881 307.987L173.134 306.847L176.258 307.541L178.212 298.748L178.103 298.724L174.785 300.674L174.203 299.676L177.693 297.616L179.739 298.071L177.57 307.833L180.444 308.472L180.19 309.612L172.881 307.987ZM193.614 308.301L193.905 306.989L198.435 307.996L198.143 309.308L193.614 308.301ZM210.342 316.313L210.595 315.173L213.719 315.867L215.673 307.073L215.564 307.049L212.246 309L211.664 308.002L215.154 305.942L217.2 306.397L215.031 316.158L217.905 316.797L217.651 317.937L210.342 316.313ZM219.707 318.394L219.96 317.254L223.084 317.948L225.038 309.155L224.929 309.131L221.611 311.081L221.029 310.083L224.519 308.023L226.566 308.478L224.396 318.24L227.27 318.879L227.017 320.019L219.707 318.394ZM229.072 320.476L229.326 319.335L232.449 320.03L234.404 311.236L234.294 311.212L230.976 313.162L230.395 312.165L233.885 310.105L235.931 310.559L233.761 320.321L236.635 320.96L236.382 322.1L229.072 320.476ZM238.437 322.557L238.691 321.417L241.815 322.111L243.769 313.318L243.66 313.293L240.341 315.244L239.76 314.246L243.25 312.186L245.296 312.641L243.127 322.403L246 323.041L245.747 324.181L238.437 322.557ZM259.171 322.871L259.462 321.559L263.992 322.565L263.7 323.877L259.171 322.871ZM275.898 330.882L276.152 329.742L279.276 330.437L281.23 321.643L281.121 321.619L277.802 323.569L277.221 322.571L280.711 320.512L282.757 320.966L280.588 330.728L283.461 331.367L283.208 332.507L275.898 330.882ZM285.264 332.964L285.517 331.824L288.641 332.518L290.595 323.724L290.486 323.7L287.168 325.651L286.586 324.653L290.076 322.593L292.122 323.048L289.953 332.809L292.827 333.448L292.573 334.588L285.264 332.964ZM294.629 335.045L294.882 333.905L298.006 334.599L299.96 325.806L299.851 325.782L296.533 327.732L295.951 326.734L299.442 324.674L301.488 325.129L299.318 334.891L302.192 335.53L301.939 336.67L294.629 335.045ZM303.994 337.127L304.248 335.986L307.371 336.681L309.326 327.887L309.216 327.863L305.898 329.813L305.317 328.816L308.807 326.756L310.853 327.21L308.683 336.972L311.557 337.611L311.304 338.751L303.994 337.127ZM324.727 337.44L325.019 336.128L329.549 337.135L329.257 338.447L324.727 337.44ZM341.455 345.452L341.709 344.312L344.832 345.006L346.787 336.213L346.677 336.188L343.359 338.139L342.778 337.141L346.268 335.081L348.314 335.536L346.144 345.298L349.018 345.936L348.765 347.077L341.455 345.452ZM350.82 347.533L351.074 346.393L354.198 347.087L356.152 338.294L356.043 338.27L352.724 340.22L352.143 339.222L355.633 337.163L357.679 337.617L355.51 347.379L358.384 348.018L358.13 349.158L350.82 347.533ZM360.186 349.615L360.439 348.475L363.563 349.169L365.517 340.375L365.408 340.351L362.09 342.302L361.508 341.304L364.998 339.244L367.044 339.699L364.875 349.46L367.749 350.099L367.495 351.239L360.186 349.615ZM369.551 351.696L369.804 350.556L372.928 351.25L374.882 342.457L374.773 342.432L371.455 344.383L370.874 343.385L374.364 341.325L376.41 341.78L374.24 351.542L377.114 352.181L376.861 353.321L369.551 351.696Z" fill="white"/>
<path d="M154.216 260.033L157.262 260.71C158.595 261.006 159.488 261.685 159.94 262.747C160.392 263.81 160.418 265.241 160.018 267.043C159.618 268.844 158.988 270.13 158.128 270.901C157.268 271.671 156.172 271.908 154.839 271.612L151.794 270.935L154.216 260.033ZM155.03 270.458C155.905 270.652 156.628 270.496 157.199 269.989C157.781 269.485 158.195 268.681 158.44 267.577L158.815 265.89C159.061 264.787 159.026 263.883 158.713 263.18C158.41 262.478 157.821 262.031 156.946 261.836L155.275 261.465L153.359 270.087L155.03 270.458ZM163.774 261.469L165.024 261.747L163.955 266.557L164.017 266.571C164.144 266.392 164.29 266.228 164.455 266.078C164.621 265.919 164.808 265.791 165.015 265.695C165.233 265.601 165.476 265.54 165.744 265.513C166.012 265.485 166.313 265.508 166.646 265.582C167.49 265.769 168.106 266.191 168.496 266.845C168.889 267.49 168.976 268.301 168.758 269.28L167.609 274.45L166.36 274.172L167.46 269.221C167.625 268.482 167.585 267.899 167.341 267.474C167.099 267.037 166.665 266.75 166.041 266.611C165.791 266.556 165.539 266.532 165.286 266.542C165.032 266.551 164.798 266.597 164.583 266.68C164.368 266.764 164.181 266.892 164.022 267.064C163.864 267.236 163.756 267.453 163.698 267.713L162.455 273.305L161.206 273.027L163.774 261.469ZM170.479 273.973L172.837 274.497L174.156 268.562L171.798 268.038L172.034 266.976L175.642 267.778L175.191 269.808L175.269 269.826C175.577 269.228 175.999 268.802 176.536 268.55C177.085 268.29 177.719 268.24 178.438 268.399L179.562 268.649L179.285 269.899L177.77 269.562C177.051 269.402 176.422 269.481 175.881 269.798C175.352 270.117 175.011 270.615 174.861 271.292L174.087 274.775L177.211 275.469L176.975 276.532L170.243 275.035L170.479 273.973ZM185.288 277.002L185.226 276.988C185.099 277.168 184.952 277.337 184.785 277.497C184.621 277.646 184.43 277.768 184.212 277.861C184.005 277.957 183.767 278.019 183.499 278.047C183.231 278.075 182.93 278.052 182.597 277.978C181.753 277.79 181.135 277.374 180.743 276.73C180.353 276.075 180.267 275.258 180.485 274.279L181.634 269.109L182.883 269.387L181.783 274.338C181.618 275.078 181.657 275.665 181.899 276.102C182.143 276.527 182.578 276.81 183.202 276.949C183.452 277.004 183.704 277.027 183.957 277.018C184.211 277.009 184.445 276.962 184.66 276.879C184.875 276.796 185.061 276.673 185.217 276.511C185.376 276.339 185.485 276.117 185.545 275.847L186.788 270.255L188.037 270.533L186.246 278.592L184.997 278.314L185.288 277.002ZM191.66 279.795L190.562 271.094L191.827 271.375L192.233 275.005L192.673 278.922L192.736 278.936L194.794 275.575L196.7 272.458L197.934 272.732L193.253 280.149L191.66 279.795ZM211.505 284.402C210.172 284.106 209.285 283.401 208.844 282.287C208.414 281.175 208.401 279.708 208.806 277.886C209.211 276.063 209.844 274.74 210.705 273.915C211.576 273.092 212.678 272.829 214.011 273.125C214.511 273.236 214.928 273.4 215.262 273.617C215.596 273.833 215.868 274.085 216.078 274.371C216.287 274.658 216.448 274.967 216.56 275.298C216.675 275.619 216.767 275.94 216.838 276.261L215.599 276.527C215.558 276.267 215.499 276.018 215.42 275.782C215.344 275.536 215.234 275.315 215.092 275.119C214.962 274.916 214.788 274.741 214.57 274.594C214.361 274.449 214.091 274.34 213.757 274.266C212.893 274.073 212.175 274.258 211.602 274.819C211.04 275.383 210.637 276.211 210.394 277.304L209.998 279.085C209.755 280.178 209.769 281.099 210.04 281.848C210.321 282.599 210.894 283.07 211.758 283.262C212.091 283.336 212.383 283.352 212.633 283.309C212.893 283.268 213.124 283.189 213.325 283.069C213.539 282.942 213.732 282.788 213.903 282.608C214.076 282.417 214.237 282.212 214.384 281.994L215.394 282.759C215.191 283.031 214.97 283.288 214.731 283.529C214.491 283.771 214.216 283.978 213.905 284.149C213.593 284.32 213.241 284.433 212.846 284.487C212.452 284.542 212.004 284.513 211.505 284.402ZM219.966 273.957L221.215 274.235L220.146 279.045L220.209 279.059C220.336 278.88 220.482 278.716 220.646 278.567C220.813 278.407 221 278.279 221.207 278.183C221.424 278.089 221.667 278.029 221.936 278.001C222.204 277.973 222.505 277.996 222.838 278.07C223.681 278.258 224.298 278.679 224.688 279.334C225.08 279.978 225.167 280.79 224.95 281.769L223.801 286.938L222.551 286.661L223.652 281.709C223.816 280.97 223.776 280.388 223.532 279.962C223.29 279.526 222.857 279.238 222.232 279.099C221.982 279.044 221.731 279.021 221.477 279.03C221.224 279.039 220.99 279.085 220.774 279.169C220.559 279.252 220.372 279.38 220.214 279.552C220.055 279.725 219.947 279.941 219.889 280.201L218.647 285.793L217.397 285.515L219.966 273.957ZM232.963 288.975C232.474 288.866 232.153 288.663 232 288.367C231.847 288.071 231.787 287.73 231.818 287.343L231.74 287.326C231.459 287.755 231.09 288.061 230.634 288.244C230.191 288.419 229.642 288.433 228.986 288.287C228.142 288.1 227.519 287.732 227.116 287.184C226.714 286.635 226.597 285.981 226.766 285.221C226.933 284.471 227.332 283.953 227.963 283.668C228.606 283.384 229.536 283.378 230.754 283.648L232.472 284.03L232.649 283.234C232.781 282.64 232.713 282.161 232.444 281.795C232.178 281.419 231.738 281.163 231.124 281.026C230.582 280.906 230.115 280.917 229.723 281.059C229.333 281.191 228.994 281.416 228.705 281.734L228 280.922C228.15 280.737 228.336 280.565 228.557 280.407C228.778 280.248 229.035 280.125 229.328 280.037C229.623 279.939 229.946 279.885 230.298 279.876C230.652 279.856 231.032 279.891 231.438 279.982C232.385 280.192 233.082 280.598 233.527 281.2C233.983 281.804 234.116 282.533 233.926 283.387L232.941 287.822L234.065 288.072L233.822 289.166L232.963 288.975ZM229.437 287.289C229.76 287.361 230.059 287.39 230.336 287.374C230.625 287.351 230.882 287.299 231.108 287.218C231.336 287.127 231.522 287.004 231.665 286.85C231.821 286.688 231.923 286.503 231.969 286.295L232.264 284.967L230.546 284.586C229.796 284.419 229.226 284.402 228.836 284.534C228.446 284.665 228.208 284.929 228.12 285.325L228.047 285.653C227.954 286.069 228.029 286.419 228.272 286.703C228.528 286.978 228.916 287.174 229.437 287.289ZM241.527 289.501L241.464 289.487C240.721 290.371 239.783 290.687 238.648 290.435C237.658 290.215 236.965 289.673 236.567 288.808C236.179 287.947 236.134 286.849 236.43 285.516C236.726 284.184 237.232 283.209 237.948 282.592C238.675 281.978 239.533 281.781 240.522 282C241.657 282.253 242.374 282.936 242.672 284.052L242.735 284.066L243.804 279.255L245.053 279.533L242.485 291.091L241.235 290.813L241.527 289.501ZM239.378 289.433C239.659 289.496 239.933 289.518 240.199 289.501C240.465 289.484 240.707 289.428 240.924 289.334C241.144 289.23 241.328 289.091 241.476 288.916C241.637 288.733 241.748 288.507 241.808 288.236L242.453 285.331C242.514 285.06 242.508 284.813 242.438 284.59C242.38 284.358 242.272 284.154 242.115 283.977C241.96 283.79 241.766 283.632 241.532 283.503C241.298 283.375 241.041 283.279 240.76 283.217C240.031 283.055 239.414 283.153 238.908 283.51C238.415 283.86 238.088 284.399 237.926 285.128L237.62 286.502C237.458 287.231 237.525 287.863 237.822 288.399C238.13 288.927 238.649 289.271 239.378 289.433ZM250.892 291.582L250.829 291.569C250.087 292.452 249.148 292.768 248.013 292.516C247.024 292.296 246.33 291.754 245.932 290.89C245.544 290.028 245.499 288.931 245.795 287.598C246.091 286.265 246.597 285.29 247.314 284.674C248.04 284.059 248.898 283.862 249.887 284.082C251.022 284.334 251.739 285.018 252.037 286.133L252.1 286.147L253.169 281.336L254.419 281.614L251.85 293.172L250.6 292.894L250.892 291.582ZM248.743 291.515C249.025 291.577 249.298 291.6 249.564 291.582C249.83 291.565 250.072 291.509 250.29 291.416C250.51 291.312 250.694 291.172 250.842 290.998C251.002 290.815 251.113 290.588 251.173 290.317L251.819 287.412C251.879 287.141 251.874 286.894 251.803 286.671C251.745 286.44 251.638 286.235 251.48 286.058C251.325 285.871 251.131 285.713 250.897 285.585C250.664 285.456 250.406 285.361 250.125 285.298C249.396 285.136 248.779 285.234 248.273 285.592C247.78 285.941 247.453 286.48 247.291 287.209L246.985 288.583C246.824 289.312 246.891 289.945 247.187 290.48C247.496 291.008 248.015 291.353 248.743 291.515ZM261.059 295.219C260.57 295.11 260.248 294.907 260.096 294.611C259.943 294.315 259.882 293.974 259.914 293.587L259.835 293.57C259.554 293.999 259.186 294.305 258.73 294.488C258.287 294.663 257.737 294.677 257.081 294.531C256.238 294.344 255.615 293.976 255.212 293.428C254.81 292.879 254.693 292.225 254.862 291.465C255.028 290.715 255.428 290.197 256.059 289.912C256.701 289.628 257.632 289.622 258.85 289.893L260.568 290.274L260.745 289.478C260.877 288.884 260.809 288.405 260.54 288.039C260.274 287.663 259.834 287.407 259.22 287.27C258.678 287.15 258.211 287.161 257.819 287.303C257.429 287.435 257.09 287.66 256.8 287.978L256.096 287.166C256.246 286.981 256.432 286.809 256.653 286.651C256.874 286.492 257.131 286.369 257.423 286.281C257.718 286.183 258.042 286.129 258.393 286.12C258.748 286.1 259.128 286.135 259.534 286.226C260.481 286.436 261.178 286.842 261.623 287.444C262.079 288.048 262.212 288.777 262.022 289.631L261.036 294.066L262.161 294.316L261.918 295.41L261.059 295.219ZM257.533 293.534C257.855 293.605 258.155 293.634 258.431 293.619C258.721 293.595 258.978 293.543 259.204 293.462C259.432 293.371 259.617 293.248 259.761 293.095C259.917 292.933 260.018 292.747 260.065 292.539L260.36 291.212L258.642 290.83C257.892 290.663 257.322 290.646 256.932 290.778C256.542 290.91 256.303 291.173 256.215 291.569L256.142 291.897C256.05 292.313 256.125 292.663 256.368 292.947C256.624 293.222 257.012 293.418 257.533 293.534Z" fill="white"/>
<path opacity="0.9" d="M180.526 162.966C179.766 162.797 179.101 162.518 178.532 162.129C177.963 161.74 177.507 161.257 177.166 160.678C176.825 160.1 176.607 159.434 176.512 158.681C176.43 157.919 176.489 157.086 176.691 156.18C176.892 155.274 177.206 154.502 177.631 153.865C178.07 153.219 178.577 152.709 179.152 152.334C179.727 151.959 180.354 151.716 181.035 151.605C181.715 151.494 182.409 151.517 183.117 151.675C183.565 151.774 183.959 151.895 184.299 152.036C184.649 152.179 184.946 152.322 185.187 152.463C185.44 152.606 185.64 152.738 185.788 152.858C185.936 152.979 186.037 153.067 186.09 153.122L185.375 154.275C185.295 154.191 185.175 154.093 185.014 153.981C184.853 153.869 184.666 153.751 184.453 153.627C184.251 153.506 184.019 153.394 183.757 153.292C183.509 153.182 183.249 153.097 182.978 153.037C182.406 152.91 181.868 152.894 181.366 152.99C180.864 153.086 180.41 153.286 180.004 153.589C179.598 153.892 179.246 154.295 178.948 154.797C178.664 155.291 178.448 155.871 178.299 156.537C178.156 157.183 178.098 157.787 178.126 158.351C178.164 158.917 178.291 159.426 178.508 159.878C178.726 160.32 179.036 160.695 179.438 161.003C179.85 161.313 180.358 161.535 180.961 161.669C181.659 161.824 182.253 161.88 182.744 161.836C183.234 161.792 183.607 161.738 183.861 161.674L183.974 163.011C183.89 163.047 183.745 163.085 183.539 163.127C183.335 163.158 183.084 163.179 182.787 163.189C182.49 163.2 182.148 163.189 181.761 163.158C181.375 163.127 180.963 163.063 180.526 162.966ZM190.357 156.201C190.482 156.229 190.621 156.271 190.772 156.326C190.936 156.374 191.093 156.43 191.242 156.496C191.394 156.552 191.529 156.609 191.647 156.668C191.778 156.719 191.872 156.762 191.93 156.797L191.399 158.006C191.293 157.939 191.111 157.849 190.852 157.737C190.606 157.617 190.274 157.51 189.858 157.418C189.587 157.358 189.309 157.329 189.025 157.331C188.753 157.325 188.573 157.324 188.485 157.326L186.968 164.151L185.515 163.829L187.244 156.05C187.615 156.002 188.068 155.982 188.601 155.991C189.137 155.99 189.722 156.06 190.357 156.201ZM191.986 161.022C192.146 160.303 192.389 159.701 192.715 159.217C193.044 158.722 193.419 158.335 193.842 158.057C194.264 157.78 194.719 157.602 195.206 157.525C195.693 157.447 196.171 157.461 196.639 157.565C197.732 157.808 198.494 158.338 198.925 159.154C199.357 159.961 199.419 161.062 199.109 162.457C199.095 162.519 199.076 162.603 199.053 162.707C199.032 162.801 199.007 162.888 198.978 162.969L193.418 161.733C193.293 162.59 193.395 163.285 193.725 163.817C194.055 164.35 194.673 164.716 195.579 164.918C196.089 165.031 196.525 165.084 196.887 165.077C197.262 165.062 197.547 165.033 197.743 164.989L197.675 166.252C197.477 166.307 197.143 166.336 196.672 166.341C196.211 166.348 195.7 166.289 195.138 166.164C194.43 166.006 193.838 165.766 193.364 165.442C192.903 165.11 192.547 164.719 192.297 164.27C192.047 163.821 191.895 163.323 191.842 162.776C191.802 162.221 191.85 161.636 191.986 161.022ZM197.739 161.464C197.895 160.811 197.848 160.237 197.597 159.744C197.359 159.243 196.943 158.927 196.349 158.795C196.016 158.721 195.704 158.723 195.414 158.8C195.136 158.87 194.886 158.989 194.662 159.158C194.439 159.327 194.245 159.535 194.081 159.782C193.927 160.032 193.803 160.294 193.71 160.569L197.739 161.464ZM206.936 161.869C206.791 161.684 206.568 161.487 206.264 161.277C205.961 161.068 205.612 160.919 205.216 160.831C204.8 160.739 204.423 160.737 204.086 160.826C203.762 160.907 203.477 161.062 203.229 161.291C202.984 161.51 202.779 161.792 202.615 162.138C202.45 162.484 202.322 162.865 202.229 163.282C202.019 164.229 202.09 165.015 202.443 165.64C202.798 166.254 203.366 166.648 204.147 166.822C204.543 166.91 204.874 166.967 205.141 166.994C205.421 167.012 205.639 167.017 205.794 167.008L206.936 161.869ZM208.151 156.402L209.659 156.475L207.017 168.361C206.663 168.381 206.216 168.38 205.674 168.358C205.133 168.336 204.524 168.25 203.847 168.099C203.222 167.96 202.682 167.737 202.226 167.428C201.77 167.119 201.406 166.743 201.133 166.3C200.86 165.856 200.682 165.353 200.6 164.788C200.53 164.215 200.569 163.601 200.714 162.945C200.853 162.32 201.059 161.765 201.331 161.279C201.613 160.795 201.952 160.401 202.348 160.095C202.743 159.79 203.188 159.583 203.682 159.474C204.187 159.368 204.73 159.379 205.313 159.509C205.782 159.613 206.179 159.767 206.506 159.971C206.842 160.176 207.086 160.356 207.238 160.51L208.151 156.402ZM210.915 169.473L209.462 169.151L211.267 161.029L212.72 161.352L210.915 169.473ZM212.312 159.72C212.052 159.662 211.846 159.529 211.696 159.321C211.558 159.105 211.522 158.851 211.587 158.559C211.652 158.268 211.791 158.058 212.005 157.931C212.232 157.796 212.475 157.757 212.736 157.815C212.996 157.873 213.195 158.01 213.333 158.226C213.483 158.434 213.526 158.684 213.461 158.976C213.396 159.267 213.25 159.481 213.024 159.616C212.81 159.743 212.572 159.778 212.312 159.72ZM216.577 162.209L219.654 162.893L219.383 164.111L216.306 163.427L215.473 167.176C215.383 167.582 215.339 167.927 215.341 168.212C215.346 168.486 215.393 168.715 215.483 168.899C215.576 169.072 215.709 169.211 215.882 169.315C216.056 169.419 216.268 169.499 216.518 169.555C216.955 169.652 217.314 169.683 217.595 169.647C217.889 169.603 218.093 169.572 218.206 169.553L218.22 170.818C218.058 170.859 217.783 170.891 217.396 170.914C217.006 170.947 216.576 170.912 216.108 170.808C215.556 170.685 215.113 170.516 214.779 170.299C214.457 170.075 214.218 169.798 214.062 169.468C213.906 169.138 213.826 168.76 213.822 168.333C213.832 167.898 213.896 167.41 214.017 166.868L215.627 159.621L217.136 159.694L216.577 162.209Z" fill="white"/>
<g clip-path="url(#clip2_158_44)">
<path d="M508.816 217.952L496.461 235.419L491.194 234.248L490.638 217.991C490.606 216.992 490.475 216.599 489.829 216.037C488.776 215.121 486.933 214.072 485.278 213.306L485.52 212.774L493.999 214.659C494.554 214.781 495.046 215.098 495.387 215.552C495.728 216.005 495.896 216.566 495.86 217.132L495.482 228.746L503.581 216.788L508.816 217.952ZM526.574 235.513C527.725 230.432 520.736 228.585 521.289 226.324C521.459 225.637 522.28 225.048 523.76 225.18C525.482 225.395 527.114 226.071 528.484 227.136L530.266 223.245C528.9 222.353 527.386 221.712 525.795 221.353C520.869 220.258 516.82 222.109 515.956 225.851C515.309 228.617 517.471 230.718 519.154 232.063C520.887 233.437 521.405 234.189 521.207 235.029C520.907 236.322 519.246 236.549 517.807 236.253C515.294 235.735 514.001 234.698 512.959 233.9L511.119 237.919C512.165 238.712 514.209 239.657 516.432 240.173C521.666 241.336 525.666 239.512 526.574 235.513ZM538.181 244.691L542.791 245.715L543.05 225.56L538.795 224.614C538.341 224.509 537.866 224.543 537.432 224.71C536.997 224.878 536.623 225.173 536.358 225.556L524.917 241.743L530.149 242.906L531.829 240.259L538.222 241.68L538.181 244.691ZM534.14 236.631L538.368 229.98L538.272 237.549L534.14 236.631ZM515.936 219.534L507.536 237.88L502.551 236.772L510.956 218.427L515.936 219.534Z" fill="white"/>
</g>
<defs>
<linearGradient id="paint0_linear_158_44" x1="-15.8254" y1="139.171" x2="862.038" y2="601.794" gradientUnits="userSpaceOnUse">
<stop stop-color="#FF94A1"/>
<stop offset="1" stop-color="#FF2C6B"/>
</linearGradient>
<linearGradient id="paint1_linear_158_44" x1="63.3508" y1="114.657" x2="629.29" y2="411.446" gradientUnits="userSpaceOnUse">
<stop offset="0.119355" stop-color="#282828"/>
<stop offset="0.843296" stop-color="#0B0B0B"/>
</linearGradient>
<linearGradient id="paint2_linear_158_44" x1="92.471" y1="74.6817" x2="658.41" y2="371.471" gradientUnits="userSpaceOnUse">
<stop offset="0.122247" stop-color="#52B6FE"/>
<stop offset="0.878935" stop-color="#6154FE"/>
</linearGradient>
<clipPath id="clip0_158_44">
<rect width="82.9167" height="82.9167" fill="white" transform="translate(424.421 197.088)"/>
</clipPath>
<clipPath id="clip1_158_44">
<rect width="63.1746" height="63.1746" fill="white" transform="translate(466.271 204.555) rotate(6.67)"/>
</clipPath>
<clipPath id="clip2_158_44">
<rect width="63.1746" height="63.1746" fill="white" transform="translate(490.12 191.518) rotate(12.53)"/>
</clipPath>
</defs>
</svg>
